<svg fill="#000000" xmlns="http://www.w3.org/2000/svg"  viewBox="0 0 50 50" width="50px" height="50px"><path d="M 2 12 C 0.90625 12 0 12.90625 0 14 L 0 36 C 0 37.09375 0.90625 38 2 38 L 48 38 C 49.09375 38 50 37.09375 50 36 L 50 14 C 50 12.90625 49.09375 12 48 12 Z M 2 14 L 48 14 L 48 36 L 2 36 Z M 15.625 21 L 12.6875 29.4375 L 14.46875 29.4375 L 15.125 27.4375 L 18.09375 27.4375 L 18.75 29.4375 L 20.65625 29.4375 L 17.71875 21 Z M 22.4375 21 L 22.4375 29.4375 L 25.78125 29.4375 C 28.3125 29.4375 29.75 27.902344 29.75 25.15625 C 29.75 22.507813 28.296875 21 25.78125 21 Z M 34.9375 21 L 34.9375 26.8125 C 34.9375 27.644531 34.539063 28.09375 33.8125 28.09375 C 33.132813 28.09375 32.667969 27.648438 32.65625 26.96875 L 30.96875 26.96875 C 30.96875 28.625 32.078125 29.65625 33.8125 29.65625 C 35.605469 29.65625 36.6875 28.632813 36.6875 26.8125 L 36.6875 21 Z M 24.21875 22.5 L 25.5 22.5 C 27.035156 22.5 27.9375 23.476563 27.9375 25.1875 C 27.9375 26.972656 27.0625 27.9375 25.5 27.9375 L 24.21875 27.9375 Z M 16.5625 22.75 L 16.65625 22.75 L 17.71875 26.0625 L 15.5 26.0625 Z"/></svg>