<svg fill="#000000" xmlns="http://www.w3.org/2000/svg"  viewBox="0 0 50 50" width="50px" height="50px"><path d="M 2 12 C 0.90625 12 0 12.90625 0 14 L 0 36 C 0 37.09375 0.90625 38 2 38 L 48 38 C 49.09375 38 50 37.09375 50 36 L 50 14 C 50 12.90625 49.09375 12 48 12 Z M 2 14 L 48 14 L 48 36 L 2 36 Z M 14.9375 21 L 12 29.4375 L 13.75 29.4375 L 14.40625 27.4375 L 17.375 27.4375 L 18.03125 29.4375 L 19.9375 29.4375 L 17 21 Z M 21.75 21 L 21.75 29.4375 L 25.0625 29.4375 C 27.59375 29.4375 29.03125 27.902344 29.03125 25.15625 C 29.03125 22.507813 27.578125 21 25.0625 21 Z M 30.1875 21 L 33.0625 29.4375 L 35.1875 29.4375 L 38.03125 21 L 36.125 21 L 34.21875 27.46875 L 34.125 27.46875 L 32.1875 21 Z M 23.5 22.5 L 24.78125 22.5 C 26.316406 22.5 27.21875 23.476563 27.21875 25.1875 C 27.21875 26.972656 26.34375 27.9375 24.78125 27.9375 L 23.5 27.9375 Z M 15.84375 22.75 L 15.96875 22.75 L 17 26.0625 L 14.78125 26.0625 Z"/></svg>