<svg xmlns="http://www.w3.org/2000/svg" viewBox="0 0 4680 3120"><defs><style>.cls-1,.cls-4{fill:#fff;}.cls-1{opacity:0;}.cls-2{fill:#b0dfe5;}.cls-3{fill:#232063;}.cls-5{fill:#cecece;}.cls-6{fill:#393939;}.cls-7{fill:#ff4e02;}.cls-8{fill:#f22d65;}.cls-9{fill:#ff9c02;}.cls-10{fill:#ae2d65;}.cls-11{fill:#cc1f3d;}.cls-12{fill:#616161;}.cls-13{fill:#5d1f14;}.cls-14{fill:#008284;}.cls-15{fill:#129b9b;}.cls-16{fill:#b7082e;}.cls-17{fill:#949494;}.cls-18{fill:#171717;}.cls-19{fill:#686868;}.cls-20{fill:#535353;}.cls-21{fill:#2055bb;}.cls-22{fill:#def8f7;}.cls-23{fill:#35357c;}.cls-24{fill:#61bfff;}.cls-25{fill:#b2092d;}.cls-26{fill:#840f2c;}.cls-27{fill:#d3d3d3;}.cls-28{fill:#fbc5a9;}.cls-29{fill:#f7a18a;}.cls-30{fill:#e0175a;}.cls-31{fill:#e0195b;}.cls-32{fill:#c4c4c4;}.cls-33{fill:#252525;}.cls-34{fill:#caecef;}.cls-35{fill:#068480;}.cls-36{fill:#34e2de;}.cls-37{fill:#00b6be;}.cls-38{fill:#4b6bfe;}</style></defs><title>05</title><g id="_05" data-name="05"><rect id="_05-2" data-name="05" class="cls-1" width="4680" height="3120"/><path class="cls-2" d="M2999.15,728.7C1856.4,371.58,1206.67,1529.58,1206.67,1529.58,122,1881.42,734.91,2568.72,1306.82,2617.74s1695.33,24.51,2442.22-238S4141.89,1085.82,2999.15,728.7Z"/><path class="cls-3" d="M3409.22,380.46c-129.37-40-243.69-18.36-341.78,39.08q2.23.61,4.47,1.26c245.66,69.66,194.33,770,0,1004.63,275,7.33,491.31,69.66,491.31,69.66S3918.88,538.12,3409.22,380.46Z"/><path class="cls-4" d="M2922.31,1876.24h664.78l3.32-145.2-664.8,9.42S2979.75,1816.85,2922.31,1876.24Z"/><path class="cls-5" d="M2924.76,1740c12.47,11.61,14,24.66,14,24.66,539.52-33.29,642.79,49.38,651.67,56.47l-9-97Z"/><path class="cls-6" d="M3595.39,1714.21a.93.93,0,0,0-.16-.18c-.53-.58-1.07-1.15-1.67-1.72l0,0c-6.6-6.41-16.09-10.81-29.79-10.81H2912.3V1740h644.81s24.42-2.7,24.42,30.85V1833c0,33.58-24.42,30.83-24.42,30.83H2912.3v38.56h651.45c20.46,0,31.61-9.82,37.65-21.44,54.91-88.94,7.2-151.86-5.12-165.73C3596,1714.86,3595.7,1714.56,3595.39,1714.21Z"/><path class="cls-4" d="M2806,1678.11h629.76l3.15-137.56-629.8,8.93S2860.38,1621.84,2806,1678.11Z"/><path class="cls-5" d="M2808.31,1549.08c11.79,11,13.25,23.35,13.25,23.35,511.07-31.53,608.92,46.8,617.33,53.5l-8.57-91.93Z"/><path class="cls-7" d="M3443.6,1524.61l-.16-.18c-.49-.54-1-1.1-1.56-1.64l0,0v0c-6.25-6.06-15.26-10.24-28.21-10.24H2796.49v36.53h610.84s23.15-2.57,23.15,29.22v58.84c0,31.78-23.15,29.22-23.15,29.22H2796.49v36.51h617.15c19.37,0,29.93-9.31,35.65-20.29,52-84.26,6.84-143.9-4.85-157C3444.19,1525.23,3443.89,1524.93,3443.6,1524.61Z"/><path class="cls-4" d="M2896.68,1486.41h664.8l3.31-145.2-664.8,9.41S2954.14,1427,2896.68,1486.41Z"/><path class="cls-5" d="M2899.14,1350.21c12.47,11.6,14,24.63,14,24.63,539.48-33.27,642.78,49.39,651.64,56.49l-9-97Z"/><path class="cls-8" d="M3569.79,1324.37l-.18-.19c-.52-.56-1.08-1.15-1.65-1.72l0,0v0c-6.59-6.41-16.1-10.82-29.77-10.82H2886.67v38.57h644.82s24.44-2.72,24.44,30.85v62.1c0,33.54-24.44,30.82-24.44,30.82H2886.67v38.57h651.49c20.43,0,31.59-9.84,37.62-21.44,54.91-88.94,7.2-151.86-5.1-165.75C3570.41,1325,3570.09,1324.71,3569.79,1324.37Z"/><rect class="cls-9" x="2994.11" y="1512.55" width="275.66" height="36.54"/><rect class="cls-9" x="2996.4" y="1666.36" width="275.65" height="36.52"/><path class="cls-10" d="M3569.79,1324.37l-.18-.19c-.52-.56-1.08-1.15-1.65-1.72l0,0v0c-6.59-6.41-16.1-10.82-29.77-10.82h-119v38.57h112.37s24.44-2.72,24.44,30.85v62.1c0,33.54-24.44,30.82-24.44,30.82H3419.12v38.57h119c20.43,0,31.59-9.84,37.62-21.44,54.91-88.94,7.2-151.86-5.1-165.75C3570.41,1325,3570.09,1324.71,3569.79,1324.37Z"/><path class="cls-11" d="M3337.79,1415.38c-29.21,11.55-40.59,65-40.59,65l36.17-26.35,26.23,36.69c-1.67-53.74,32.72-78.09,32.72-78.09S3362,1410.25,3337.79,1415.38Z"/><path class="cls-12" d="M3595.4,1714.2l-.18-.19c-.52-.56-1.07-1.14-1.65-1.72l0,0v0c-6.59-6.41-16.09-10.82-29.77-10.82h-119V1740h112.37s24.43-2.72,24.43,30.85V1833c0,33.55-24.43,30.83-24.43,30.83H3444.74v38.56h119c20.43,0,31.59-9.83,37.63-21.44,54.91-88.94,7.19-151.86-5.11-165.75C3596,1714.86,3595.7,1714.54,3595.4,1714.2Z"/><path class="cls-11" d="M3224.22,1081.73s-57-49.41-125.41-7.6-59.3,233.36,114,234.11c137.75.61,185.47-101.09,161.91-178.62S3271.35,1046.76,3224.22,1081.73Z"/><path class="cls-13" d="M3142.5,993.17c-4.47,5.35-4.78,13.33-4.78,13.33,81.15,31.21,87.71,99,87.71,99C3222.75,1010.11,3142.5,993.17,3142.5,993.17Z"/><path class="cls-14" d="M3210,1063.5c108.93-55.94,77.68-140.83,77.68-140.83C3171.39,987.42,3210,1063.5,3210,1063.5Z"/><path class="cls-15" d="M3210,1063.5s31.4-111,77.68-140.83C3287.7,922.67,3172.68,963.07,3210,1063.5Z"/><path class="cls-16" d="M3087.54,1252c45.64,61.94,116.32,58.92,116.32,58.92,121.25,14.17,154.07-59.57,154.07-59.57,45.66-87.52,8.66-141.84,8.66-141.84C3309.93,1269.14,3087.54,1252,3087.54,1252Z"/><path d="M3259.57,2220.79c-70.82-15.18-130.11-18.12-177.74-20.48-63.9-3.17-106.11-5.26-127.09-34-5-6.88-6.72-13.11-5.18-19.05,4-15.38,28.75-26.88,55-39.07,30.88-14.34,62.82-29.17,64.82-52.85a8.59,8.59,0,0,0-2.81-6.91c-17.14-17.18-124.3-21.57-318.53-13-144.3,6.33-285.48,17.76-286.88,17.87l.31,3.85c1.41-.11,142.52-11.53,286.75-17.86,240.5-10.55,304.38.66,315.61,11.92a4.85,4.85,0,0,1,1.7,3.86c-1.81,21.44-32.72,35.79-62.6,49.67-27.09,12.57-52.68,24.45-57.11,41.6-1.81,7,.14,14.53,5.81,22.3,22.07,30.22,65,32.35,130,35.57,47.5,2.36,106.61,5.29,177.13,20.4,16.07,3.44,24.58,8.08,24.59,13.4,0,7.35-14.34,21.29-82.8,46-44.59,16.09-106.81,34.8-184.91,55.59-133,35.43-267.82,65-269.17,65.32l.83,3.78c1.35-.29,136.21-29.91,269.33-65.36,78.21-20.82,140.53-39.56,185.23-55.69,26.61-9.6,47.21-18.38,61.25-26.1,16.23-8.92,24.12-16.62,24.1-23.54C3287.2,2230.39,3278.15,2224.77,3259.57,2220.79Z"/><path class="cls-3" d="M2532.2,2319.06c-125.86,19.8-216.84,105.93-203.24,192.35l455.71-71.71C2771.07,2353.27,2658,2299.25,2532.2,2319.06Z"/><polygon class="cls-17" points="1900.61 2081.85 2530.37 2120.71 2530.37 2087.83 1900.61 2048.97 1900.61 2081.85"/><polygon class="cls-18" points="2530.37 2120.71 2817.02 2094.8 2817.02 2061.92 2530.37 2087.83 2530.37 2120.71"/><path d="M2529.9,2087.39v33.85l287.17-26,.43,0V2061.4l-287.17,25.95Zm.95.88,285.69-25.82v31.92l-285.69,25.82Z"/><polygon class="cls-19" points="1900.61 2048.97 2530.37 2087.83 2817.02 2061.92 2174.57 2022.54 1900.61 2048.97"/><polygon class="cls-20" points="2320.45 2053.62 2445.34 2061.92 2445.34 1938.47 2320.45 1938.47 2320.45 2053.62"/><polygon class="cls-18" points="2445.34 2061.92 2472.36 2053.62 2472.36 1938.47 2445.34 1938.47 2445.34 2061.92"/><path d="M2444.86,2062.57l28-8.6V1938h-28Zm1-123.62h26.06v114.31l-26.06,8Z"/><polygon class="cls-3" points="1815.58 1924.08 2885.78 1998.48 2885.78 905.7 1815.58 1019.29 1815.58 1924.08"/><polygon class="cls-21" points="1855.91 1886.46 2845.45 1955.25 2845.45 950.53 1855.91 1055.57 1855.91 1886.46"/><polygon class="cls-22" points="2404.98 1009.06 2299.29 1020.28 2299.28 1020.28 2228.34 1027.81 2024.93 1049.4 1867.61 1066.09 1867.61 1875.53 1900.55 1877.83 2246.2 1901.85 2314.88 1906.63 2372.93 1910.66 2833.75 1942.7 2833.75 963.55 2610.01 987.3 2404.98 1009.06"/><rect class="cls-23" x="2885.78" y="905.69" width="29.89" height="1092.79"/><path class="cls-24" d="M2316.72,619.85c-222.49,186.25-313,472.05-322.47,754.24-.9,27.06-9.09,266.56,10.7,271.33.08,0,618.45,149.16,623.29,150.31-26.92-6.43-12.13-663.23,94.15-923,69.93-170.9,185.37-359.72,345.05-453.2C2805.8,347.44,2518.82,450.68,2316.72,619.85Z"/><polygon class="cls-4" points="2136.79 1316.7 2102.54 1288.23 2095.35 1296.8 2140.75 1334.54 2185.95 1251.41 2175.53 1245.44 2136.79 1316.7"/><path class="cls-4" d="M2139.93,1208c-43.63-3.07-79.16,29.23-79.22,72s35.38,80.08,79,83.15,79.17-29.23,79.22-72S2183.55,1211.11,2139.93,1208Zm-.2,143.67c-37.17-2.61-67.36-34.39-67.31-70.84s30.32-64,67.49-61.35,67.36,34.4,67.31,70.84S2176.9,1354.33,2139.73,1351.71Z"/><path class="cls-4" d="M2118.7,1452c-43.62-3.08-79.16,29.23-79.21,72s35.38,80.07,79,83.15,79.16-29.24,79.22-72S2162.33,1455.07,2118.7,1452Zm-.19,143.67c-37.17-2.61-67.36-34.39-67.31-70.84s30.32-64,67.49-61.35,67.36,34.4,67.31,70.84S2155.68,1598.29,2118.51,1595.67Z"/><path class="cls-4" d="M2154.9,1486.36l-15.55-1.1-12.79,20.59c-3,4.88-5.33,8.77-7.83,13.65-2.41-4.84-5-9.56-7.89-14.75l-12.32-22.36-15.66-1.11,27.37,47.17-28.59,44.3,15.54,1.09,11.27-19.35c4.54-7.17,7.07-11.64,9.42-16.13,2.8,5.24,5.84,10.43,10,17.36l11.91,21.12,15.68,1.11-29-49Z"/><path class="cls-4" d="M2177.13,984.77c-43.62-3.07-79.16,29.23-79.22,72s35.39,80.08,79,83.15,79.16-29.23,79.22-72S2220.76,987.84,2177.13,984.77Zm-.19,143.67c-37.17-2.61-67.36-34.39-67.31-70.84s30.32-64,67.49-61.35,67.36,34.4,67.31,70.84S2214.1,1131.06,2176.94,1128.44Z"/><path class="cls-4" d="M2213.33,1019.13l-15.55-1.1L2185,1038.62c-3,4.89-5.33,8.77-7.83,13.65-2.41-4.84-5-9.56-7.89-14.75L2157,1015.16l-15.66-1.1,27.36,47.16-28.58,44.3,15.54,1.1,11.27-19.35c4.54-7.18,7.07-11.64,9.42-16.14,2.8,5.25,5.83,10.43,10,17.36l11.91,21.12,15.68,1.11-29-49Z"/><rect class="cls-4" x="2450.75" y="922.82" width="3" height="312.73" transform="translate(1115.81 3401.28) rotate(-83.83)"/><rect class="cls-4" x="2403.52" y="986.63" width="3" height="227.43" transform="translate(1052.62 3373.2) rotate(-83.83)"/><rect class="cls-4" x="2398.39" y="1174.94" width="3" height="315.09" transform="translate(695.97 3484.61) rotate(-80.67)"/><rect class="cls-4" x="2355.16" y="1190.46" width="3" height="217.08" transform="translate(692.79 3413.9) rotate(-80.67)"/><rect class="cls-4" x="2385.15" y="1208.11" width="3" height="301.19" transform="translate(659 3493.51) rotate(-80.67)"/><rect class="cls-4" x="2380.51" y="1427.95" width="3" height="319.16" transform="translate(297.8 3549.74) rotate(-76.96)"/><rect class="cls-4" x="2356.63" y="1425.04" width="3" height="270.12" transform="translate(306.03 3505.24) rotate(-76.96)"/><path class="cls-3" d="M2360.76,851.7l-44.12-5.11q-10.82-1.25-14.9,7.83-1.9,4.22-.1,6.83c1.24,1.83,3.55,2.94,6.9,3.33L2320,865.9l-26.1,57.93c-1.47,3.28-1.64,6-.5,8s3.23,3.15,6.42,3.52a14.1,14.1,0,0,0,8.78-1.73,15.38,15.38,0,0,0,6.3-7.38L2341,868.33l11.69,1.35a14.79,14.79,0,0,0,9.07-1.48,12.3,12.3,0,0,0,5.75-6.17Q2371.57,852.94,2360.76,851.7Z"/><path class="cls-3" d="M2418.59,858.39l-32.94-3.81a14.08,14.08,0,0,0-8.11,1.71,13.32,13.32,0,0,0-6.38,7l-11.08,24.61-18.68,41.47q-1.82,4-.26,7.18c1.14,2.07,3.39,3.29,6.74,3.68l32.19,3.72q5.52.65,9.16-1.71a14.14,14.14,0,0,0,5.62-6.44,7.11,7.11,0,0,0,.16-6.39q-1.38-2.8-6.84-3.44L2366,923.37l7.2-16,20.56,2.37a13,13,0,0,0,8.46-1.91,13.21,13.21,0,0,0,5.56-6,8,8,0,0,0,.3-6.68c-1.06-2-3.11-3.13-6.17-3.49l-20.55-2.37,7-15.47,22.13,2.56a13.21,13.21,0,0,0,8.61-1.65,14.38,14.38,0,0,0,5.2-6.12c1.3-2.89,1.41-5.22.31-7S2421.6,858.74,2418.59,858.39Z"/><path class="cls-3" d="M2477.38,864.39A45.2,45.2,0,0,0,2467,862a56.59,56.59,0,0,0-16,.43q-20.93,4.41-29.31,21.69-3,6.61-3.05,11a12.53,12.53,0,0,0,2.37,8,21,21,0,0,0,5.5,4.76,84.37,84.37,0,0,0,8.17,4.28q4.26,2,5.25,2.45a23.87,23.87,0,0,1,6.67,4.47q2.13,2.48.44,6.22a9.76,9.76,0,0,1-5.86,5.23,19.24,19.24,0,0,1-8.67,1.16,9.3,9.3,0,0,0-2-.35,20.23,20.23,0,0,1-6-2.11l-1.73-.88L2420,926.9c-.91-.48-1.47-.77-1.69-.87a17.82,17.82,0,0,0-5.94-2.11,11.82,11.82,0,0,0-8.38,2.3,23,23,0,0,0-6.33,6.85q-2,5.8,2.64,9.55,8,6.58,22.65,8.29a51.64,51.64,0,0,0,17.1-.74,49,49,0,0,0,15.45-6.34,40.43,40.43,0,0,0,14.89-17.63q3.18-7.53,2.46-13a15.76,15.76,0,0,0-4.52-8.6,38.28,38.28,0,0,0-8.23-5.51q-6.21-3.24-9.51-4.74-4.78-2.28-6.33-4-1.36-1.5.06-4.67a10.14,10.14,0,0,1,5.44-4.3,16.5,16.5,0,0,1,7.3-.76,32.17,32.17,0,0,1,8.24,2.43,67.54,67.54,0,0,0,7.31,2.76,15.29,15.29,0,0,0,8.27-1.82,13.16,13.16,0,0,0,5.39-6q2.11-4.68-.75-8.28A18.79,18.79,0,0,0,2477.38,864.39Z"/><path class="cls-3" d="M2551.27,873.74l-44.12-5.11q-10.82-1.25-14.9,7.83-1.9,4.21-.1,6.83c1.24,1.83,3.55,2.94,6.9,3.33l11.44,1.32-26.1,57.94q-2.2,4.92-.5,8t6.42,3.52a14.1,14.1,0,0,0,8.78-1.73,15.38,15.38,0,0,0,6.3-7.38l26.09-57.93,11.69,1.35a14.79,14.79,0,0,0,9.07-1.48,12.3,12.3,0,0,0,5.75-6.17Q2562.09,875,2551.27,873.74Z"/><path class="cls-11" d="M1693.65,560.81a72,72,0,1,0,72,72A72,72,0,0,0,1693.65,560.81Zm0,123.25a51.24,51.24,0,1,1,51.24-51.24A51.3,51.3,0,0,1,1693.65,684.06Z"/><rect class="cls-25" x="1667.94" y="708.91" width="51.41" height="39.58"/><rect class="cls-26" x="1662.64" y="693.41" width="62.02" height="22.03" rx="11.02"/><rect class="cls-25" x="1495.96" y="766.55" width="45.74" height="35.21" transform="translate(-176.09 1005.48) rotate(-34.75)"/><path class="cls-26" d="M1515.55,748.22l-29.23,20.27a9.8,9.8,0,0,0,11.17,16.11l29.24-20.27a9.8,9.8,0,0,0-11.18-16.11Z"/><ellipse class="cls-11" cx="1693.65" cy="1017.34" rx="287.81" ry="284.23"/><ellipse class="cls-4" cx="1693.65" cy="1017.34" rx="233.98" ry="231.07"/><path d="M1693.65,785.56c-129.41,0-234.69,104-234.69,231.78s105.28,231.78,234.69,231.78,234.68-104,234.68-231.78S1823.05,785.56,1693.65,785.56Zm0,462.14c-128.63,0-233.27-103.34-233.27-230.36S1565,787,1693.65,787s233.26,103.34,233.26,230.36S1822.27,1247.7,1693.65,1247.7Z"/><path class="cls-27" d="M1693.65,786.28c-129,0-234,103.64-234,231.06q0,9.24.73,18.26c9.46-118.92,110.45-212.83,233.25-212.83s223.79,93.91,233.25,212.83q.72-9,.72-18.26C1927.62,889.92,1822.65,786.28,1693.65,786.28Z"/><polygon class="cls-3" points="1675.66 1031.4 1711.96 1031.4 1693.65 844.09 1675.66 1031.4"/><path class="cls-28" d="M2473.64,2297.38a240.36,240.36,0,0,0-35.64-6.77c-85.79-10.45-264.11,56.86-264.11,56.86l31.57,30.3c-27.4,13.43-44.92,23.09-44.92,23.09l80.66,38.3s380.09-93.43,369.52-113.74C2600.51,2305.82,2525.86,2301,2473.64,2297.38Z"/><path class="cls-28" d="M2548.17,2315l-338.88,112c-57.45,19.15-12.77,82.11-12.77,82.11,2.61-.87,189.22,78.63,253-97.06,40.62-54.1,150-38.72,180.47-45.69S2630.87,2314.11,2548.17,2315Z"/><path class="cls-28" d="M2061.66,1593.78c-32-24-95.83,51.44-107.15,54.22-.38-17.19-12.11-38.13-47.26-33.2A204.14,204.14,0,0,1,1883,1621s-14.57-16.8-41.38-16-97.36,26.52-120,127.82,182.39,163.28,182.39,163.28,71.43-33.41,107.57-128.85c8.86-29.19-11.34-38-26.26-38.13C1994.27,1712.18,2090.23,1615.19,2061.66,1593.78Z"/><path class="cls-29" d="M1872.94,1630.72q-4.59,5.17-8.65,10.74t-7.61,11.51a83.74,83.74,0,0,0-6.21,12.51,85.58,85.58,0,0,0,10-9.73q4.59-5.18,8.64-10.75t7.6-11.51A84.76,84.76,0,0,0,1883,1621,85.58,85.58,0,0,0,1872.94,1630.72Z"/><path class="cls-29" d="M1939.71,1662.79q-7,7.73-13.46,15.86t-12.46,16.66a185.91,185.91,0,0,0-11.11,17.73,187.76,187.76,0,0,0,14.8-14.79q7-7.73,13.46-15.86t12.45-16.67a187.86,187.86,0,0,0,11.12-17.72A191.24,191.24,0,0,0,1939.71,1662.79Z"/><path class="cls-29" d="M1975.08,1739.35q-4.66,5.43-8.79,11.25c-2.75,3.87-5.34,7.86-7.73,12a88.6,88.6,0,0,0-6.33,13,90.34,90.34,0,0,0,10.18-10.25q4.66-5.43,8.77-11.25c2.75-3.87,5.34-7.86,7.73-12a90.18,90.18,0,0,0,6.34-13A91.08,91.08,0,0,0,1975.08,1739.35Z"/><path class="cls-30" d="M1698.25,1713.18S1574,2002.81,1407,2124.24s-558.57,1-677.4,189.56c0,0-83.18,166.9,153.74,295.93s647.34-124.37,757.5-245.94,336.11-468.86,329.11-477.13S1698.25,1713.18,1698.25,1713.18Z"/><path class="cls-8" d="M1386.78,2627.16c-2.56-49.75-5-99.51-8.16-149.22-4.9-77.19-10.95-154.73-22.34-231.38-4.16-28.06-9-56-14.84-83.75-15.4-73.7-36.76-165.57-96.68-217.1-44.88-38.59-109.42-49.26-167.2-39.85q-9.6,1.58-18.9,3.86c-67.53,16.61-123.69,67.43-169.09,117.78-30.93,34.31-58.56,71.4-85.4,108.94-2.09,2.91-4.15,5.82-6.21,8.75C622.33,2394.53,537.77,2555,537.77,2555s552.9,268.86,856.45,190.81c.47-.12.39-5.51,0-13.93C1392.76,2702.06,1387.15,2634.29,1386.78,2627.16Z"/><path class="cls-31" d="M1378.62,2477.94c-4.9-77.19-10.95-154.73-22.34-231.38-108.35-80.39-217.56-151-324.56-117.17,0,0-171.29,73.72-73.72,325.24,58.62,151.08,254.15,237.23,436.2,277.23-1.44-29.8-7-97.57-7.42-104.7C1384.22,2577.41,1381.79,2527.65,1378.62,2477.94Z"/><path class="cls-8" d="M1691.27,2379.35c-206-15.17-427.15-359.92-639.63-292.71,0,0-171.29,73.72-73.72,325.24s574.58,323.06,737.2,301.38,559.4-140.93,559.4-151.78-95.4-307.88-95.4-307.88S1897.25,2394.53,1691.27,2379.35Z"/><path class="cls-32" d="M1135.23,1844.62l-25.68,13.89c5.92,22.39,4.77,43.26-14.39,84.07-.14,10.64,22.84,41.64,68.66,39.17,51.78-2.78,60.89-42.92,59.5-55-13.86-18.8-1.13-60.5,2-79.93C1202.59,1849.22,1135.23,1844.62,1135.23,1844.62Z"/><path d="M1135.27,1844.05h-.16l-26.22,14.19.12.43c5.68,21.53,5.15,42.12-14.36,83.67l-.05.12v.12c-.06,4.37,3.61,12.36,11.94,20.36,7.8,7.49,24.61,19.53,52.1,19.53,1.7,0,3.44,0,5.21-.14,20.76-1.12,36.78-8.2,47.62-21,10.59-12.55,13.22-27.55,12.41-34.56v-.15l-.09-.12c-11.13-15.09-5-44.84-.45-66.56,1-5,1.94-9.31,2.52-13l.11-.73-.73.08C1202.84,1848.62,1136,1844.1,1135.27,1844.05Zm87,15.61c-4.54,21.87-10.75,51.8.55,67.34.74,6.88-1.89,21.36-12.17,33.54-10.63,12.6-26.38,19.55-46.81,20.65-30.15,1.63-48.32-11.26-56.46-19.08-8-7.65-11.58-15.38-11.6-19.41,19.48-41.51,20.11-62.29,14.49-83.9l25.14-13.6c3.69.25,66.63,4.41,89.24,2.29C1224,1851,1223.19,1855,1222.22,1859.66Z"/><path class="cls-28" d="M1339.08,1669.14a563,563,0,0,0-22.15-83.85c-88.16-161.25-344.65-2.07-270,128.28-61.42-26-76.82,31.61-59.13,70.53,17.17,40.23,65,24.37,65,24.37s15.09,33,61.6,58c22.67,12.15,49.27,17.16,74.82,17.32,30.52.2,61.11-7.12,87.71-22.24,33.58-19.08,54.62-53,65.53-89,1.36-4.48,21.9-55.73,25.79-52.82C1349.71,1705.84,1342,1684.91,1339.08,1669.14Z"/><ellipse class="cls-33" cx="1318.76" cy="1674.18" rx="12.88" ry="14.27" transform="translate(-236.94 217.54) rotate(-8.66)"/><path d="M1326.61,1662.4a12.74,12.74,0,0,0-10.08-2.88c-7.33,1.11-12.3,8.6-11.07,16.69,1.13,7.4,7.06,12.78,13.69,12.78a12.77,12.77,0,0,0,1.84-.14c7.34-1.12,12.3-8.61,11.07-16.69A15.5,15.5,0,0,0,1326.61,1662.4Zm-5.79,25.32c-6.71,1-13.1-4.22-14.23-11.69s3.4-14.37,10.11-15.39a11.64,11.64,0,0,1,9.19,2.64,14.46,14.46,0,0,1,5,9C1332.07,1679.79,1327.54,1686.7,1320.82,1687.72Z"/><path d="M1321.52,1626.13a49.61,49.61,0,0,0-30.61,10.47,1.7,1.7,0,0,0,0,2.41,1.74,1.74,0,0,0,2.41,0,45.83,45.83,0,0,1,28.2-9.47A1.71,1.71,0,0,0,1321.52,1626.13Z"/><path d="M1339.78,1691.27c-1.58-1.52-4,.89-2.41,2.41q13.86,13.35,28.06,26.35c.28-.34.55-.7.81-1.07.09.69.18,1.38.26,2.07l-1.07-1c-2.15,2.67-5,4.66-7.8,6.63-3.27,2.32-6.43,4.69-8.84,7.93-1.31,1.77,1.65,3.47,2.94,1.72,2.33-3.13,5.68-5.32,8.81-7.56s6.37-4.74,8.64-8.07a1.7,1.7,0,0,0-.27-2.06Q1354.18,1705.12,1339.78,1691.27Z"/><path d="M1366.24,1719c-.26.37-.53.73-.81,1.07l1.07,1C1366.42,1720.34,1366.33,1719.65,1366.24,1719Z"/><path class="cls-13" d="M1260,1532.73c-13.86-41.2-60.92-52.56-99.74-51.45-99,2.84-155.19,79.27-155.44,126.08-29,13.72-59.95,73.51-56.91,135.22,2.44,49.57-36.7,97.56-71.11,128.93-18.56,16.91-40.16,26.34-59.88,41.16-67.47,50.7-145.51,178.4-80.16,258,34.62,42.16,89.13,57.16,141.59,56.38,38.52-.57,74.9-17.87,111.87-26.64,16.3-3.87,33.43-7.09,50.25-5.43,20.92,2.08,39.65,12.12,61,11.24,54.8-2.25,99.9-57.21,122.3-102.67,17.68-35.89,7-79.26,3.93-117.19q-3.56-44-5.77-88.11c-1.34-26.79-4-53.91,3.36-80.13,7.51-27.58,26.31-76.81,37.59-126.5,10.67-47,13.47-100.54.44-147.84Q1261.78,1538.18,1260,1532.73Z"/><path class="cls-13" d="M1213.89,1477c-279.83-3.06-31.66,166.47,5.11,166.26s124.6-40.64,145-54.14C1345.64,1468.35,1213.89,1477,1213.89,1477Z"/><path d="M1343.36,1747.69c-.13.07-13,6.55-22,1.68-5-2.69-7.92-8.42-8.81-17a1.5,1.5,0,1,0-3,.31c1,9.67,4.49,16.2,10.37,19.39a19.47,19.47,0,0,0,9.34,2.18,37.9,37.9,0,0,0,15.43-3.84,1.5,1.5,0,0,0,.64-2A1.49,1.49,0,0,0,1343.36,1747.69Z"/><path class="cls-28" d="M1217.91,1698.82c-23.29,17-6.21,70.82,13.58,78.44s31.38-77.21,31.38-77.21S1241.2,1681.86,1217.91,1698.82Z"/><ellipse class="cls-34" cx="3620.36" cy="2496.96" rx="255.77" ry="47.52"/><path class="cls-35" d="M3512.66,1854.72c-96.69-67.36-280.13,26.72-230,152.15s230,161,230,161S3616.1,1926.77,3512.66,1854.72Z"/><path class="cls-4" d="M3480.41,2087.65c-59.95-130.44-116.56-234.58-117.12-235.61a3.25,3.25,0,0,0-5.71,3.11c.56,1,57.06,105,116.92,235.22,55.21,120.1,124.63,287.72,141.85,404.23a3.26,3.26,0,0,0,3.22,2.77,3.87,3.87,0,0,0,.48,0,3.26,3.26,0,0,0,2.74-3.69C3605.45,2376.38,3535.8,2208.14,3480.41,2087.65Z"/><path class="cls-36" d="M3720.85,1888c-107.53,65.81-18.53,312.58-18.53,312.58s181.57-24.83,239.08-147.08S3821.35,1826.52,3720.85,1888Z"/><path class="cls-4" d="M3874.79,1893.29a3.26,3.26,0,0,0-4.55.73c-.59.81-59.9,83-118.8,196.09-34.61,66.45-62.32,130.43-82.36,190.17-25.09,74.8-38.18,143.15-38.89,203.14a3.25,3.25,0,0,0,3.21,3.3h0a3.26,3.26,0,0,0,3.25-3.22c1.6-134.44,66.4-286.45,120.47-390.3,58.69-112.69,117.76-194.55,118.35-195.37A3.26,3.26,0,0,0,3874.79,1893.29Z"/><path class="cls-37" d="M3478.39,1729.39c.16,135.09,154,234.68,154,234.68s185.36-185.63,115.95-290.87C3683.47,1574.83,3478.23,1594.29,3478.39,1729.39Z"/><path class="cls-4" d="M3610.59,1615.4a3.25,3.25,0,1,0-6.46.78c.14,1.17,14.13,118.64,21.51,261.79,6.81,132,9.23,313.42-17.91,428a3.25,3.25,0,0,0,2.41,3.92,3.35,3.35,0,0,0,.76.09,3.26,3.26,0,0,0,3.16-2.51c27.32-115.35,24.91-297.42,18.08-429.86C3624.75,1734.27,3610.73,1616.57,3610.59,1615.4Z"/><path class="cls-38" d="M3806.41,2219.94H3443.94a14.92,14.92,0,0,0-14.92,14.53h0c0,.18,0,.36,0,.55v185.82a79.09,79.09,0,0,0,79.09,79.09h234.14a79.08,79.08,0,0,0,79.08-79.09V2234.47h0A14.94,14.94,0,0,0,3806.41,2219.94Z"/></g></svg>