<svg fill="#000000" xmlns="http://www.w3.org/2000/svg"  viewBox="0 0 50 50" width="50px" height="50px"><path d="M 14 4 C 8.4886661 4 4 8.4886661 4 14 L 4 36 C 4 41.511334 8.4886661 46 14 46 L 36 46 C 41.511334 46 46 41.511334 46 36 L 46 14 C 46 8.4886661 41.511334 4 36 4 L 14 4 z M 14 6 L 36 6 C 40.430666 6 44 9.5693339 44 14 L 44 36 C 44 40.430666 40.430666 44 36 44 L 14 44 C 9.5693339 44 6 40.430666 6 36 L 6 14 C 6 9.5693339 9.5693339 6 14 6 z M 16.386719 14.699219 L 11.148438 17.136719 L 11.908203 20.609375 L 15.685547 18.8125 L 15.746094 18.8125 L 15.746094 34.496094 L 20.224609 34.496094 L 20.224609 14.699219 L 16.386719 14.699219 z M 35.777344 20.955078 C 34.951344 20.955078 33.956187 21.199 33.242188 21.875 C 32.415187 22.627 32.078125 23.847078 32.078125 24.955078 L 32.078125 25.3125 L 30.876953 25.3125 L 30.876953 27.416016 L 32.078125 27.416016 L 32.078125 34.496094 L 32.078125 34.498047 L 34.951172 34.498047 L 34.951172 27.417969 L 36.773438 27.417969 L 36.773438 25.3125 L 34.933594 25.3125 L 34.933594 24.84375 C 34.933594 23.94075 35.328578 23.208984 36.267578 23.208984 C 36.642578 23.208984 36.9435 23.266797 37.1875 23.341797 L 37.298828 21.142578 C 36.905828 21.029578 36.416344 20.955078 35.777344 20.955078 z M 28.039062 21.310547 C 27.119062 21.310547 26.518109 21.930812 26.537109 22.757812 C 26.518109 23.545812 27.120484 24.185547 28.021484 24.185547 C 28.960484 24.185547 29.560547 23.545813 29.560547 22.757812 C 29.541547 21.930812 28.959063 21.310547 28.039062 21.310547 z M 26.611328 25.310547 L 26.611328 34.496094 L 29.466797 34.496094 L 29.466797 25.310547 L 26.611328 25.310547 z"/></svg>