<svg fill="#000000" xmlns="http://www.w3.org/2000/svg"  viewBox="0 0 50 50" width="50px" height="50px"><path d="M 14 4 C 8.4886661 4 4 8.4886661 4 14 L 4 36 C 4 41.511334 8.4886661 46 14 46 L 36 46 C 41.511334 46 46 41.511334 46 36 L 46 14 C 46 8.4886661 41.511334 4 36 4 L 14 4 z M 14 6 L 36 6 C 40.430666 6 44 9.5693339 44 14 L 44 36 C 44 40.430666 40.430666 44 36 44 L 14 44 C 9.5693339 44 6 40.430666 6 36 L 6 14 C 6 9.5693339 9.5693339 6 14 6 z M 18.447266 14.367188 C 15.889266 14.367188 13.514172 15.098375 12.326172 15.859375 L 13.269531 19.210938 C 14.092531 18.722937 15.798109 18.021484 17.412109 18.021484 C 19.361109 18.021484 20.335938 18.903797 20.335938 20.091797 C 20.335938 21.767797 18.355734 22.346953 16.802734 22.376953 L 15.005859 22.376953 L 15.005859 25.695312 L 16.894531 25.695312 C 18.934531 25.695312 20.884766 26.578344 20.884766 28.527344 C 20.884766 30.019344 19.665766 31.177734 17.259766 31.177734 C 15.370766 31.177734 13.482156 30.385984 12.660156 29.958984 L 11.716797 33.435547 C 12.873797 34.166547 15.03475 34.835938 17.59375 34.835938 C 22.61975 34.835937 25.695312 32.277391 25.695312 28.775391 C 25.695312 26.186391 23.776391 24.389891 21.400391 23.962891 L 21.400391 23.900391 C 23.836391 23.047391 25.025391 21.402781 25.025391 19.300781 C 25.025391 16.590781 22.680266 14.367188 18.447266 14.367188 z M 37.777344 20.955078 C 36.951344 20.955078 35.956187 21.199 35.242188 21.875 C 34.415187 22.627 34.078125 23.847078 34.078125 24.955078 L 34.078125 25.3125 L 32.876953 25.3125 L 32.876953 27.416016 L 34.078125 27.416016 L 34.078125 34.496094 L 34.078125 34.498047 L 36.951172 34.498047 L 36.951172 27.417969 L 38.773438 27.417969 L 38.773438 25.3125 L 36.933594 25.3125 L 36.933594 24.84375 C 36.933594 23.94075 37.328578 23.208984 38.267578 23.208984 C 38.642578 23.208984 38.9435 23.266797 39.1875 23.341797 L 39.298828 21.142578 C 38.905828 21.029578 38.416344 20.955078 37.777344 20.955078 z M 30.039062 21.310547 C 29.119062 21.310547 28.518109 21.930812 28.537109 22.757812 C 28.518109 23.545812 29.120484 24.185547 30.021484 24.185547 C 30.960484 24.185547 31.560547 23.545813 31.560547 22.757812 C 31.541547 21.930812 30.959063 21.310547 30.039062 21.310547 z M 28.611328 25.310547 L 28.611328 34.496094 L 31.466797 34.496094 L 31.466797 25.310547 L 28.611328 25.310547 z"/></svg>