<svg fill="#000000" xmlns="http://www.w3.org/2000/svg"  viewBox="0 0 50 50" width="50px" height="50px"><path d="M 14 4 C 8.4886661 4 4 8.4886661 4 14 L 4 36 C 4 41.511334 8.4886661 46 14 46 L 36 46 C 41.511334 46 46 41.511334 46 36 L 46 14 C 46 8.4886661 41.511334 4 36 4 L 14 4 z M 14 6 L 36 6 C 40.430666 6 44 9.5693339 44 14 L 44 36 C 44 40.430666 40.430666 44 36 44 L 14 44 C 9.5693339 44 6 40.430666 6 36 L 6 14 C 6 9.5693339 9.5693339 6 14 6 z M 18.568359 14.365234 C 15.888359 14.365234 13.574031 15.27925 12.082031 16.40625 L 13.392578 19.726562 C 14.428578 18.934562 15.92 18.080078 17.625 18.080078 C 19.909 18.080078 20.884766 19.360609 20.884766 20.974609 C 20.823766 23.288609 18.721484 25.513859 14.396484 29.380859 L 11.837891 31.695312 L 11.837891 34.496094 L 11.837891 34.498047 L 25.878906 34.498047 L 25.878906 30.691406 L 18.416016 30.691406 L 18.416016 30.628906 L 20.242188 29.107422 C 23.106188 26.549422 25.513672 23.898125 25.513672 20.578125 C 25.513672 16.984125 23.046359 14.365234 18.568359 14.365234 z M 37.777344 20.955078 C 36.951344 20.955078 35.956187 21.199 35.242188 21.875 C 34.415187 22.627 34.078125 23.847078 34.078125 24.955078 L 34.078125 25.3125 L 32.876953 25.3125 L 32.876953 27.416016 L 34.078125 27.416016 L 34.078125 34.496094 L 34.078125 34.498047 L 36.951172 34.498047 L 36.951172 27.417969 L 38.773438 27.417969 L 38.773438 25.3125 L 36.933594 25.3125 L 36.933594 24.84375 C 36.933594 23.94075 37.328578 23.208984 38.267578 23.208984 C 38.642578 23.208984 38.9435 23.266797 39.1875 23.341797 L 39.298828 21.142578 C 38.905828 21.029578 38.416344 20.955078 37.777344 20.955078 z M 30.039062 21.310547 C 29.119062 21.310547 28.518109 21.930812 28.537109 22.757812 C 28.518109 23.545812 29.120484 24.185547 30.021484 24.185547 C 30.960484 24.185547 31.560547 23.545813 31.560547 22.757812 C 31.541547 21.930812 30.959063 21.310547 30.039062 21.310547 z M 28.611328 25.310547 L 28.611328 34.496094 L 31.466797 34.496094 L 31.466797 25.310547 L 28.611328 25.310547 z"/></svg>