<svg fill="#000000" xmlns="http://www.w3.org/2000/svg"  viewBox="0 0 50 50" width="50px" height="50px"><path d="M 2 12 C 0.90625 12 0 12.90625 0 14 L 0 36 C 0 37.09375 0.90625 38 2 38 L 48 38 C 49.09375 38 50 37.09375 50 36 L 50 14 C 50 12.90625 49.09375 12 48 12 Z M 2 14 L 48 14 L 48 36 L 2 36 Z M 12.5625 21.03125 L 12.5625 22.53125 L 15.09375 22.53125 L 15.09375 29.46875 L 16.84375 29.46875 L 16.84375 22.53125 L 19.40625 22.53125 L 19.40625 21.03125 Z M 21.5625 21.03125 L 21.5625 29.46875 L 23.3125 29.46875 L 23.3125 25.9375 L 27.125 25.9375 L 27.125 29.46875 L 28.90625 29.46875 L 28.90625 21.03125 L 27.125 21.03125 L 27.125 24.4375 L 23.3125 24.4375 L 23.3125 21.03125 Z M 31.5625 21.03125 L 31.5625 29.46875 L 37.15625 29.46875 L 37.15625 27.96875 L 33.3125 27.96875 L 33.3125 25.90625 L 36.9375 25.90625 L 36.9375 24.5 L 33.3125 24.5 L 33.3125 22.53125 L 37.15625 22.53125 L 37.15625 21.03125 Z"/></svg>