<svg fill="#000000" xmlns="http://www.w3.org/2000/svg"  viewBox="0 0 50 50" width="50px" height="50px"><path d="M 22.8125 0 C 22.335938 0.0898438 21.992188 0.511719 22 1 L 22 39 C 22 39.550781 22.449219 40 23 40 L 27 40 C 27.550781 40 28 39.550781 28 39 L 28 1 C 28 0.449219 27.550781 0 27 0 L 23 0 C 22.96875 0 22.9375 0 22.90625 0 C 22.875 0 22.84375 0 22.8125 0 Z M 24 2 L 26 2 L 26 38 L 24 38 Z M 22.8125 44 C 22.335938 44.089844 21.992188 44.511719 22 45 L 22 49 C 22 49.550781 22.449219 50 23 50 L 27 50 C 27.550781 50 28 49.550781 28 49 L 28 45 C 28 44.449219 27.550781 44 27 44 L 23 44 C 22.96875 44 22.9375 44 22.90625 44 C 22.875 44 22.84375 44 22.8125 44 Z M 24 46 L 26 46 L 26 48 L 24 48 Z"/></svg>