<svg fill="#000000" xmlns="http://www.w3.org/2000/svg"  viewBox="0 0 50 50" width="50px" height="50px"><path d="M 25.015625 3 C 23.432292 3 22.11947 3.6297556 21.269531 4.5859375 C 20.419592 5.5421194 20.015625 6.7777779 20.015625 8 C 20.015625 9.2222221 20.419592 10.457881 21.269531 11.414062 C 22.11947 12.370245 23.432292 13 25.015625 13 C 26.598958 13 27.913733 12.370244 28.763672 11.414062 C 29.613611 10.457882 30.015625 9.2222221 30.015625 8 C 30.015625 6.7777779 29.613611 5.5421194 28.763672 4.5859375 C 27.913733 3.6297556 26.598958 3 25.015625 3 z M 25.015625 5 C 26.098958 5 26.786138 5.3702444 27.269531 5.9140625 C 27.752925 6.4578806 28.015625 7.2222221 28.015625 8 C 28.015625 8.7777779 27.752925 9.5421189 27.269531 10.085938 C 26.786138 10.629755 26.098958 11 25.015625 11 C 23.932292 11 23.247066 10.629756 22.763672 10.085938 C 22.280278 9.5421189 22.015625 8.7777779 22.015625 8 C 22.015625 7.2222221 22.280278 6.4578806 22.763672 5.9140625 C 23.247066 5.3702444 23.932292 5 25.015625 5 z M 20.476562 14 C 17.452258 14 14.976562 16.476746 14.976562 19.5 L 14.976562 30.929688 A 1.0001 1.0001 0 0 0 14.976562 31 A 1.0001 1.0001 0 0 0 15.28125 31.732422 C 15.642485 32.983693 16.616026 34 17.976562 34 C 18.328405 34 18.661671 33.92606 18.976562 33.8125 L 18.976562 43.5 C 18.976562 45.421188 20.555374 47 22.476562 47 C 23.455749 47 24.338959 46.584291 24.976562 45.927734 C 25.614165 46.584273 26.497391 47 27.476562 47 C 29.397752 47 30.976563 45.421188 30.976562 43.5 L 30.976562 27.630859 L 31.785156 27.892578 A 1.0001 1.0001 0 0 0 31.828125 27.90625 C 34.244121 28.564774 36.540863 26.269775 35.880859 23.853516 L 33.962891 16.816406 A 1.0001 1.0001 0 0 0 33.927734 16.681641 C 33.92507 16.673313 33.920689 16.666489 33.917969 16.658203 A 1.0001 1.0001 0 0 0 33.855469 16.519531 C 33.194698 14.777131 31.278919 14 29.476562 14 L 28.576172 14 L 21.376953 14 L 20.476562 14 z M 20.476562 16 L 21.376953 16 L 28.576172 16 L 29.476562 16 C 30.701323 16 31.777563 16.605718 32.011719 17.263672 L 32.013672 17.269531 L 33.951172 24.380859 C 34.229169 25.3986 33.373473 26.254039 32.355469 25.976562 L 25.103516 23.636719 C 24.569784 23.464363 24.274259 22.930829 24.410156 22.386719 C 24.561524 21.781249 25.163369 21.45094 25.755859 21.648438 L 29.660156 22.949219 A 1.0005647 1.0005647 0 1 0 30.292969 21.050781 L 26.388672 19.75 C 24.719162 19.193497 22.897336 20.195813 22.470703 21.902344 C 22.084601 23.448233 22.973966 25.049419 24.490234 25.539062 L 28.976562 26.986328 A 1.0001 1.0001 0 0 0 28.976562 27 L 28.976562 43.5 C 28.976562 44.340812 28.317374 45 27.476562 45 C 26.635752 45 25.976563 44.340812 25.976562 43.5 L 25.976562 32 A 1.0001 1.0001 0 0 0 24.960938 30.986328 A 1.0001 1.0001 0 0 0 23.976562 32 L 23.976562 43.429688 L 23.976562 43.5 C 23.976562 44.340812 23.317374 45 22.476562 45 C 21.635752 45 20.976563 44.340812 20.976562 43.5 L 20.976562 31 L 20.976562 22 A 1.0001 1.0001 0 1 0 18.976562 22 L 18.976562 31 C 18.976562 31.56503 18.541594 32 17.976562 32 C 17.411532 32 16.976562 31.56503 16.976562 31 L 16.976562 19.5 C 16.976562 17.561254 18.536867 16 20.476562 16 z"/></svg>