<svg fill="#000000" xmlns="http://www.w3.org/2000/svg"  viewBox="0 0 50 50" width="50px" height="50px"><path d="M 2 12 C 0.90625 12 0 12.90625 0 14 L 0 36 C 0 37.09375 0.90625 38 2 38 L 48 38 C 49.09375 38 50 37.09375 50 36 L 50 14 C 50 12.90625 49.09375 12 48 12 Z M 2 14 L 48 14 L 48 36 L 2 36 Z M 10.09375 21.03125 L 7.15625 29.46875 L 8.9375 29.46875 L 9.59375 27.46875 L 12.5625 27.46875 L 13.1875 29.46875 L 15.125 29.46875 L 12.1875 21.03125 Z M 28 21.03125 L 25.09375 29.46875 L 26.84375 29.46875 L 27.5 27.46875 L 30.46875 27.46875 L 31.125 29.46875 L 33.03125 29.46875 L 30.09375 21.03125 Z M 35.0625 21.03125 L 35.0625 29.46875 L 36.75 29.46875 L 36.75 24.1875 L 36.875 24.1875 L 40.78125 29.46875 L 42.25 29.46875 L 42.25 21.03125 L 40.53125 21.03125 L 40.53125 26.28125 L 40.4375 26.28125 L 36.5625 21.03125 Z M 11.03125 22.78125 L 11.125 22.78125 L 12.1875 26.09375 L 9.96875 26.09375 Z M 28.9375 22.78125 L 29.0625 22.78125 L 30.09375 26.09375 L 27.875 26.09375 Z M 17.40625 28.03125 L 16.9375 31.75 L 18.3125 31.75 L 19.09375 28.03125 Z"/></svg>