<svg fill="#000000" xmlns="http://www.w3.org/2000/svg"  viewBox="0 0 50 50" width="50px" height="50px"><path d="M 10.015625 3 C 8.4322921 3 7.1194705 3.6297556 6.2695312 4.5859375 C 5.4195921 5.5421194 5.015625 6.7777779 5.015625 8 C 5.015625 9.2222221 5.4195921 10.457881 6.2695312 11.414062 C 7.1194704 12.370245 8.4322921 13 10.015625 13 C 11.598958 13 12.913733 12.370244 13.763672 11.414062 C 14.613611 10.457882 15.015625 9.2222221 15.015625 8 C 15.015625 6.7777779 14.613611 5.5421194 13.763672 4.5859375 C 12.913733 3.6297556 11.598958 3 10.015625 3 z M 10.015625 5 C 11.098958 5 11.786138 5.3702444 12.269531 5.9140625 C 12.752925 6.4578806 13.015625 7.2222221 13.015625 8 C 13.015625 8.7777779 12.752925 9.5421189 12.269531 10.085938 C 11.786138 10.629755 11.098958 11 10.015625 11 C 8.9322924 11 8.2470655 10.629756 7.7636719 10.085938 C 7.2802782 9.5421189 7.015625 8.7777779 7.015625 8 C 7.015625 7.2222221 7.2802782 6.4578806 7.7636719 5.9140625 C 8.2470655 5.3702444 8.9322924 5 10.015625 5 z M 6.4765625 14 C 3.4522579 14 0.9765625 16.476746 0.9765625 19.5 L 0.9765625 30.929688 L 0.9765625 31 A 1.0001 1.0001 0 0 0 1.28125 31.732422 C 1.6424846 32.983691 2.6160254 34 3.9765625 34 C 4.328405 34 4.661671 33.92606 4.9765625 33.8125 L 4.9765625 43.5 C 4.9765625 45.421188 6.5553742 47 8.4765625 47 C 9.4557493 47 10.33896 46.584291 10.976562 45.927734 C 11.614164 46.584273 12.497392 47 13.476562 47 C 15.397752 47 16.976562 45.421188 16.976562 43.5 L 16.976562 23.652344 L 18.929688 26.302734 A 1.0001 1.0001 0 0 0 19.017578 26.408203 L 22.972656 30.464844 L 22.896484 30.376953 C 23.900351 31.680193 25.800263 31.925752 27.103516 30.921875 C 28.406755 29.918008 28.652315 28.018097 27.648438 26.714844 A 1.0001 1.0001 0 0 0 27.572266 26.626953 L 23.675781 22.632812 L 18.912109 16.21875 A 1.0001 1.0001 0 0 0 18.882812 16.183594 C 18.069937 14.939888 16.620317 14.284549 15.054688 14.130859 A 1.0001 1.0001 0 0 0 14.576172 14 L 14.476562 14 L 7.3769531 14 L 6.4765625 14 z M 6.4765625 16 L 7.3769531 16 L 14.462891 16 L 14.476562 16 C 15.726375 16 16.804307 16.584359 17.251953 17.328125 C 17.252217 17.328563 17.25169 17.32964 17.251953 17.330078 A 1.0001 1.0001 0 0 0 17.306641 17.412109 A 1.0001 1.0001 0 0 0 17.326172 17.439453 L 22.111328 23.878906 A 1.0001 1.0001 0 0 0 22.197266 23.980469 L 26.068359 27.949219 C 26.401535 28.394819 26.325438 28.996943 25.882812 29.337891 C 25.436066 29.682013 24.824602 29.60301 24.480469 29.15625 A 1.0001 1.0001 0 0 0 24.404297 29.068359 L 20.498047 25.060547 L 16.869141 20.136719 A 1.0001 1.0001 0 0 0 16.787109 20.039062 A 1.0001 1.0001 0 0 0 14.976562 20.634766 L 14.976562 43.5 C 14.976562 44.340812 14.317374 45 13.476562 45 C 12.635751 45 11.976563 44.340812 11.976562 43.5 L 11.976562 32 A 1.0001 1.0001 0 0 0 10.960938 30.986328 A 1.0001 1.0001 0 0 0 9.9765625 32 L 9.9765625 43.429688 L 9.9765625 43.5 C 9.9765625 44.340812 9.3173742 45 8.4765625 45 C 7.6357508 45 6.9765625 44.340812 6.9765625 43.5 L 6.9765625 31 L 6.9765625 22 A 1.0001 1.0001 0 1 0 4.9765625 22 L 4.9765625 31 C 4.9765625 31.56503 4.5415927 32 3.9765625 32 C 3.4115323 32 2.9765625 31.56503 2.9765625 31 L 2.9765625 19.5 C 2.9765625 17.561254 4.5368671 16 6.4765625 16 z M 32 29 A 1.0001 1.0001 0 0 0 31 30 L 31 37.832031 A 1.0001 1.0001 0 0 0 31 38.158203 L 31 46 A 1.0001 1.0001 0 0 0 32 47 L 46 47 A 1.0001 1.0001 0 0 0 47 46 L 47 30 A 1.0001 1.0001 0 0 0 46 29 L 32 29 z M 33 31 L 45 31 L 45 37 L 33 37 L 33 31 z M 39 33 A 1 1 0 0 0 39 35 A 1 1 0 0 0 39 33 z M 33 39 L 45 39 L 45 45 L 33 45 L 33 39 z M 39 41 A 1 1 0 0 0 39 43 A 1 1 0 0 0 39 41 z"/></svg>