<svg fill="#000000" xmlns="http://www.w3.org/2000/svg"  viewBox="0 0 50 50" width="50px" height="50px"><path d="M 2 12 C 0.90625 12 0 12.90625 0 14 L 0 36 C 0 37.09375 0.90625 38 2 38 L 48 38 C 49.09375 38 50 37.09375 50 36 L 50 14 C 50 12.90625 49.09375 12 48 12 Z M 2 14 L 48 14 L 48 36 L 2 36 Z M 20.125 20.78125 C 17.640625 20.78125 16.0625 22.476563 16.0625 25.21875 C 16.0625 27.960938 17.617188 29.65625 20.125 29.65625 C 22.628906 29.65625 24.1875 27.960938 24.1875 25.21875 C 24.1875 22.480469 22.621094 20.78125 20.125 20.78125 Z M 6.625 21 L 6.625 29.4375 L 8.3125 29.4375 L 8.3125 24.15625 L 8.40625 24.15625 L 12.3125 29.4375 L 13.78125 29.4375 L 13.78125 21 L 12.09375 21 L 12.09375 26.25 L 11.96875 26.25 L 8.09375 21 Z M 26.46875 21 L 26.46875 26.53125 C 26.46875 28.40625 27.871094 29.65625 30.03125 29.65625 C 32.199219 29.65625 33.5625 28.40625 33.5625 26.53125 L 33.5625 21 L 31.78125 21 L 31.78125 26.34375 C 31.78125 27.410156 31.167969 28.09375 30.03125 28.09375 C 28.898438 28.09375 28.25 27.410156 28.25 26.34375 L 28.25 21 Z M 36.21875 21 L 36.21875 29.4375 L 37.90625 29.4375 L 37.90625 24.15625 L 38.03125 24.15625 L 41.9375 29.4375 L 43.375 29.4375 L 43.375 21 L 41.6875 21 L 41.6875 26.25 L 41.59375 26.25 L 37.6875 21 Z M 20.125 22.34375 C 21.503906 22.34375 22.375 23.449219 22.375 25.21875 C 22.375 26.984375 21.503906 28.125 20.125 28.125 C 18.734375 28.125 17.875 26.984375 17.875 25.21875 C 17.875 23.449219 18.753906 22.34375 20.125 22.34375 Z"/></svg>