<svg fill="#000000" xmlns="http://www.w3.org/2000/svg"  viewBox="0 0 50 50" width="50px" height="50px"><path d="M 21.333984 0.10546875 L 20.443359 1.8945312 C 22.173652 2.7549194 22.7034 3.9162647 22.908203 4.9414062 C 22.953547 5.1683746 22.973725 5.3781815 22.986328 5.5761719 C 22.008097 5.1810876 20.950619 5 20.013672 5 C 16.700844 5 14 7.6612244 14 10.935547 C 14 13.729963 15.341613 16.194306 16.898438 17.976562 C 17.676849 18.867691 18.512805 19.592191 19.316406 20.115234 C 20.120007 20.638277 20.851169 21 21.685547 21 C 22.558358 21 23.252791 20.81389 23.978516 20.537109 C 24.700001 20.80841 25.37724 21 26.314453 21 C 27.072992 21 27.814135 20.722705 28.625 20.269531 C 29.435865 19.816357 30.288524 19.162939 31.080078 18.314453 C 32.663186 16.617481 34 14.102412 34 10.935547 C 34 7.6612244 31.299156 5 27.986328 5 C 27.042018 5 25.974864 5.1823566 24.990234 5.5839844 C 24.977001 5.2648565 24.942234 4.9166915 24.869141 4.5507812 C 24.573876 3.0731729 23.603692 1.2340807 21.333984 0.10546875 z M 20.013672 7 C 21.097345 7 22.858709 7.4923989 23.337891 7.9160156 L 24 8.5019531 L 24.662109 7.9160156 C 25.141291 7.4923989 26.902655 7 27.986328 7 C 30.2435 7 32 8.7498691 32 10.935547 C 32 13.543682 30.915579 15.559394 29.617188 16.951172 C 28.967992 17.647061 28.266214 18.179268 27.650391 18.523438 C 27.034568 18.867607 26.478914 19 26.314453 19 C 25.378869 19 25.10381 18.935866 24.398438 18.628906 L 23.978516 18.445312 L 23.566406 18.644531 C 22.917355 18.957194 22.615517 19 21.685547 19 C 21.596925 19 21.03129 18.845004 20.408203 18.439453 C 19.785117 18.033902 19.066635 17.418403 18.404297 16.660156 C 17.079621 15.143663 16 13.07613 16 10.935547 C 16 8.7498691 17.7565 7 20.013672 7 z M 6 23 L 6 50 L 44 50 L 44 49 L 44 23 L 6 23 z M 8 25 L 42 25 L 42 48 L 8 48 L 8 25 z M 19 29 C 17.35503 29 16 30.35503 16 32 C 16 33.64497 17.35503 35 19 35 L 31 35 C 32.64497 35 34 33.64497 34 32 C 34 30.35503 32.64497 29 31 29 L 19 29 z M 19 31 L 31 31 C 31.56503 31 32 31.43497 32 32 C 32 32.56503 31.56503 33 31 33 L 19 33 C 18.43497 33 18 32.56503 18 32 C 18 31.43497 18.43497 31 19 31 z"/></svg>