<svg fill="#000000" xmlns="http://www.w3.org/2000/svg"  viewBox="0 0 50 50" width="50px" height="50px"><path d="M 22.447266 2.1054688 L 21.552734 3.8945312 C 23.553237 4.8941588 24.03277 6.4890257 24.103516 7.5800781 C 23.092954 7.1874849 21.930485 7 21.009766 7 C 17.699766 7 15 9.8190625 15 13.289062 C 15 14.259062 15.139141 15.17 15.369141 16 L 17.460938 16 C 17.190937 15.19 17 14.269063 17 13.289062 C 17 10.919063 18.799766 9 21.009766 9 C 22.269766 9 23.740547 9.4404687 24.310547 9.9804688 L 25 10.630859 L 25.689453 9.9804688 C 26.259453 9.4404687 27.730234 9 28.990234 9 C 31.200234 9 33 10.919063 33 13.289062 C 33 14.229063 32.880625 15.14 32.640625 16 L 34.699219 16 C 34.899219 15.13 35 14.219062 35 13.289062 C 35 9.8190625 32.300234 7 28.990234 7 C 28.130073 7 27.060946 7.1703353 26.099609 7.5117188 C 25.995161 5.7329319 25.156406 3.4600388 22.447266 2.1054688 z M 8.4199219 10 L 4 17.730469 L 4 20 L 4 48 L 46 48 L 46 47 L 46 18 L 46 17.730469 L 41.580078 10 L 36.339844 10 C 36.609844 10.63 36.800391 11.3 36.900391 12 L 40.419922 12 L 43.845703 18 L 6.1542969 18 L 9.5800781 12 L 13.099609 12 C 13.199609 11.3 13.390156 10.63 13.660156 10 L 8.4199219 10 z M 6 20 L 44 20 L 44 46 L 6 46 L 6 20 z M 18 25 C 16.35503 25 15 26.35503 15 28 C 15 29.64497 16.35503 31 18 31 L 32 31 C 33.64497 31 35 29.64497 35 28 C 35 26.35503 33.64497 25 32 25 L 18 25 z M 18 27 L 32 27 C 32.56503 27 33 27.43497 33 28 C 33 28.56503 32.56503 29 32 29 L 18 29 C 17.43497 29 17 28.56503 17 28 C 17 27.43497 17.43497 27 18 27 z"/></svg>