<svg fill="#000000" xmlns="http://www.w3.org/2000/svg"  viewBox="0 0 50 50" width="50px" height="50px"><path d="M 6 0 L 6 28 L 44 28 L 44 27 L 44 0 L 6 0 z M 8 2 L 42 2 L 42 26 L 8 26 L 8 2 z M 19 6 C 17.35503 6 16 7.3550302 16 9 C 16 10.64497 17.35503 12 19 12 L 31 12 C 32.64497 12 34 10.64497 34 9 C 34 7.3550302 32.64497 6 31 6 L 19 6 z M 19 8 L 31 8 C 31.56503 8 32 8.4349698 32 9 C 32 9.5650302 31.56503 10 31 10 L 19 10 C 18.43497 10 18 9.5650302 18 9 C 18 8.4349698 18.43497 8 19 8 z M 22.445312 30.105469 L 21.554688 31.894531 C 23.334554 32.77957 23.638185 33.636542 23.705078 34.285156 C 23.710778 34.340296 23.687963 34.326736 23.689453 34.378906 C 22.696233 33.939369 21.6331 33.679688 20.679688 33.679688 C 17.501482 33.679688 15 36.439036 15 39.728516 C 15 42.550345 16.238615 45.058016 17.691406 46.880859 C 18.417802 47.792281 19.20061 48.534592 19.957031 49.074219 C 20.713453 49.613845 21.400798 50 22.240234 50 C 23.043962 50 23.702623 49.800464 24.380859 49.527344 C 25.0517 49.795875 25.695831 50 26.560547 50 C 27.316734 50 28.01787 49.703157 28.783203 49.234375 C 29.548537 48.765593 30.34859 48.09499 31.087891 47.226562 C 32.566491 45.48971 33.800781 42.936967 33.800781 39.728516 C 33.800781 36.439859 31.297602 33.679688 28.119141 33.679688 C 27.359414 33.679688 26.509653 33.801455 25.6875 34.060547 C 25.547827 32.773302 24.654946 31.204209 22.445312 30.105469 z M 20.679688 35.679688 C 21.657062 35.679688 23.268888 36.170912 23.703125 36.591797 L 24.400391 37.265625 L 25.095703 36.591797 C 25.530183 36.171211 27.142321 35.679688 28.119141 35.679688 C 30.140679 35.679688 31.800781 37.433173 31.800781 39.728516 C 31.800781 42.427064 30.775353 44.509244 29.564453 45.931641 C 28.959003 46.642839 28.304385 47.182547 27.738281 47.529297 C 27.172177 47.876047 26.66536 48 26.560547 48 C 25.698792 48 25.479617 47.94284 24.830078 47.632812 L 24.378906 47.416016 L 23.933594 47.650391 C 23.338121 47.963929 23.098605 48 22.240234 48 C 22.218171 48 21.69425 47.857545 21.119141 47.447266 C 20.544031 47.036986 19.874089 46.408516 19.255859 45.632812 C 18.019401 44.081406 17 41.953687 17 39.728516 C 17 37.431995 18.657893 35.679688 20.679688 35.679688 z"/></svg>