<svg fill="#000000" xmlns="http://www.w3.org/2000/svg"  viewBox="0 0 50 50" width="50px" height="50px"><path d="M 9 3 L 9 32.900391 C 9.63 32.670391 10.3 32.520469 11 32.480469 L 11 5 L 39 5 L 39 32.490234 C 39.7 32.540234 40.37 32.699453 41 32.939453 L 41 3 L 9 3 z M 19 10 C 17.35 10 16 11.35 16 13 C 16 14.65 17.35 16 19 16 L 31 16 C 32.65 16 34 14.65 34 13 C 34 11.35 32.65 10 31 10 L 19 10 z M 6.5507812 11 C 3.5607813 11 1.1308594 13.670938 1.1308594 16.960938 C 1.1308594 22.320937 4.55 25.999141 7 26.869141 L 7 24.640625 C 5.49 23.700625 3.1308594 21.130938 3.1308594 16.960938 C 3.1308594 14.780937 4.6707813 13 6.5507812 13 C 6.7007812 13 6.85 13.009531 7 13.019531 L 7 11.019531 C 6.84 11.009531 6.6907812 11 6.5507812 11 z M 43.449219 11 C 43.309219 11 43.16 11.009531 43 11.019531 L 43 13.019531 C 43.15 13.009531 43.299219 13 43.449219 13 C 45.329219 13 46.869141 14.780938 46.869141 16.960938 C 46.869141 21.130938 44.51 23.700625 43 24.640625 L 43 26.869141 C 45.45 25.999141 48.869141 22.320937 48.869141 16.960938 C 48.869141 13.670937 46.439219 11 43.449219 11 z M 19 12 L 31 12 C 31.55 12 32 12.45 32 13 C 32 13.55 31.55 14 31 14 L 19 14 C 18.45 14 18 13.55 18 13 C 18 12.45 18.45 12 19 12 z M 17.554688 29.105469 C 15.28498 30.234081 14.314728 32.073173 14.019531 33.550781 C 13.861864 34.339984 13.978361 34.494197 14.025391 34.988281 C 13.152637 34.656451 12.241445 34.466797 11.419922 34.466797 C 8.3824486 34.466797 6 37.116003 6 40.261719 C 6 42.955409 7.1750771 45.343959 8.5527344 47.082031 C 9.241563 47.951067 9.9838221 48.661694 10.703125 49.177734 C 11.422428 49.693775 12.074844 50.066406 12.892578 50.066406 C 13.645929 50.066406 14.274145 49.873142 14.916016 49.617188 C 15.549211 49.868985 16.160418 50.066406 16.972656 50.066406 C 17.706798 50.066406 18.376997 49.780748 19.105469 49.332031 C 19.833941 48.883315 20.591383 48.242928 21.292969 47.414062 C 22.69614 45.756335 23.865234 43.320195 23.865234 40.261719 C 23.865234 37.116003 21.482747 34.466797 18.445312 34.466797 C 17.668574 34.466797 16.806788 34.622941 15.974609 34.914062 C 15.946469 34.584852 15.87076 34.490355 15.980469 33.941406 C 16.185272 32.916265 16.715021 31.754919 18.445312 30.894531 L 17.554688 29.105469 z M 32.333984 29.105469 L 31.443359 30.894531 C 33.173652 31.754919 33.7034 32.916265 33.908203 33.941406 C 33.990298 34.352333 34.000263 34.705992 33.992188 35.005859 C 33.141911 34.644755 32.235883 34.466797 31.419922 34.466797 C 28.382489 34.466797 26 37.116003 26 40.261719 C 26 42.955409 27.175077 45.343959 28.552734 47.082031 C 29.241563 47.951067 29.983822 48.661694 30.703125 49.177734 C 31.422428 49.693775 32.074844 50.066406 32.892578 50.066406 C 33.645929 50.066406 34.274145 49.873142 34.916016 49.617188 C 35.549211 49.868985 36.160418 50.066406 36.972656 50.066406 C 37.706798 50.066406 38.376997 49.780748 39.105469 49.332031 C 39.833941 48.883315 40.591383 48.242928 41.292969 47.414062 C 42.69614 45.756335 43.865234 43.320195 43.865234 40.261719 C 43.865234 37.116003 41.482747 34.466797 38.445312 34.466797 C 37.664269 34.466797 36.802365 34.634606 35.984375 34.964844 C 35.991051 34.546922 35.974869 34.080063 35.869141 33.550781 C 35.573944 32.073173 34.603692 30.234081 32.333984 29.105469 z M 11.419922 36.466797 C 12.329983 36.466797 13.845352 36.93702 14.234375 37.316406 L 14.933594 37.996094 L 15.630859 37.316406 C 16.019882 36.93702 17.535252 36.466797 18.445312 36.466797 C 20.319879 36.466797 21.865234 38.103434 21.865234 40.261719 C 21.865234 42.813243 20.902204 44.778322 19.765625 46.121094 C 19.197336 46.79248 18.585637 47.30306 18.056641 47.628906 C 17.527644 47.954752 17.052014 48.066406 16.972656 48.066406 C 16.16327 48.066406 15.975124 48.017056 15.367188 47.724609 L 14.910156 47.503906 L 14.464844 47.742188 C 13.910328 48.036671 13.70005 48.066406 12.892578 48.066406 C 12.897278 48.066406 12.407213 47.938757 11.869141 47.552734 C 11.331068 47.166712 10.702265 46.573058 10.121094 45.839844 C 8.9587508 44.373416 8 42.362028 8 40.261719 C 8 38.103434 9.545355 36.466797 11.419922 36.466797 z M 31.419922 36.466797 C 32.329983 36.466797 33.845352 36.93702 34.234375 37.316406 L 34.933594 37.996094 L 35.630859 37.316406 C 36.019882 36.93702 37.535252 36.466797 38.445312 36.466797 C 40.319879 36.466797 41.865234 38.103434 41.865234 40.261719 C 41.865234 42.813243 40.902204 44.778322 39.765625 46.121094 C 39.197336 46.79248 38.585637 47.30306 38.056641 47.628906 C 37.527644 47.954752 37.052014 48.066406 36.972656 48.066406 C 36.16327 48.066406 35.975124 48.017056 35.367188 47.724609 L 34.910156 47.503906 L 34.464844 47.742188 C 33.910328 48.036671 33.70005 48.066406 32.892578 48.066406 C 32.897278 48.066406 32.407213 47.938757 31.869141 47.552734 C 31.331068 47.166712 30.702265 46.573058 30.121094 45.839844 C 28.958751 44.373416 28 42.362028 28 40.261719 C 28 38.103434 29.545355 36.466797 31.419922 36.466797 z"/></svg>