<svg fill="#000000" xmlns="http://www.w3.org/2000/svg"  viewBox="0 0 50 50" width="50px" height="50px"><path d="M 0 6 L 0 8 L 10 8 L 10 43 L 0 43 L 0 45 L 12 45 L 12 6 L 0 6 z M 38 6 L 38 45 L 50 45 L 50 43 L 40 43 L 40 8 L 50 8 L 50 6 L 38 6 z M 0 12 L 0 14 L 3 14 C 3.5650302 14 4 14.43497 4 15 C 4 15.56503 3.5650302 16 3 16 L 0 16 L 0 18 L 3 18 C 4.6449698 18 6 16.64497 6 15 C 6 13.35503 4.6449698 12 3 12 L 0 12 z M 47 12 C 45.35503 12 44 13.35503 44 15 C 44 16.64497 45.35503 18 47 18 L 50 18 L 50 16 L 47 16 C 46.43497 16 46 15.56503 46 15 C 46 14.43497 46.43497 14 47 14 L 50 14 L 50 12 L 47 12 z M 22.447266 18.105469 L 21.552734 19.894531 C 23.678437 20.95672 24.080213 22.675882 24.105469 23.763672 C 22.963449 23.242019 21.684578 23 20.570312 23 C 16.932502 23 14 25.991565 14 29.640625 C 14 32.778474 15.468983 35.56311 17.183594 37.582031 C 18.040899 38.591492 18.962612 39.41466 19.845703 40.005859 C 20.728794 40.597059 21.533385 41 22.429688 41 C 23.408704 41 24.172636 40.79323 24.978516 40.470703 C 25.779726 40.784754 26.523912 41 27.570312 41 C 28.388606 41 29.204831 40.687892 30.095703 40.175781 C 30.986576 39.663671 31.924548 38.926403 32.794922 37.966797 C 34.53567 36.047584 36 33.212241 36 29.640625 C 36 25.991565 33.067498 23 29.429688 23 C 28.387211 23 27.200843 23.212494 26.117188 23.666016 C 26.052111 21.867172 25.232788 19.49823 22.447266 18.105469 z M 20.570312 25 C 21.791419 25 23.748072 25.546177 24.326172 26.072266 L 25 26.685547 L 25.671875 26.072266 C 26.251617 25.545227 28.208581 25 29.429688 25 C 31.981877 25 34 27.049685 34 29.640625 C 34 32.669009 32.775455 35.01226 31.314453 36.623047 C 30.583952 37.42844 29.793956 38.04422 29.099609 38.443359 C 28.405263 38.842499 27.77752 39 27.570312 39 C 26.523535 39 26.199865 38.922587 25.410156 38.568359 L 24.978516 38.375 L 24.556641 38.583984 C 23.824186 38.947199 23.468185 39 22.429688 39 C 22.30049 39 21.661112 38.813801 20.958984 38.34375 C 20.256856 37.873699 19.450601 37.162649 18.707031 36.287109 C 17.219892 34.536031 16 32.142776 16 29.640625 C 16 27.049685 18.018123 25 20.570312 25 z"/></svg>