<svg fill="#000000" xmlns="http://www.w3.org/2000/svg"  viewBox="0 0 50 50" width="50px" height="50px"><path d="M 0 5 L 0 45 L 36 45 L 36 36.947266 C 36.173143 36.981486 36.349949 37 36.533203 37 C 37.437411 37 38.161637 36.789426 38.914062 36.480469 C 39.659427 36.781747 40.363085 37 41.332031 37 C 42.132632 37 42.903071 36.684249 43.742188 36.175781 C 44.581303 35.667313 45.460937 34.938704 46.275391 33.992188 C 47.904299 32.099153 49.265625 29.312296 49.265625 25.808594 C 49.265625 22.22303 46.519561 18.998047 42.998047 18.998047 C 41.72302 18.998047 40.743907 19.316828 39.927734 19.757812 C 39.941169 19.668835 39.945879 19.587715 39.970703 19.488281 C 40.154226 18.75318 40.655195 17.784667 42.445312 16.894531 L 41.554688 15.105469 C 39.344805 16.204333 38.345774 17.736258 38.029297 19.003906 C 37.985178 19.180623 37.978402 19.338142 37.957031 19.503906 C 37.943823 19.496602 37.937373 19.487703 37.923828 19.480469 C 37.398726 19.200003 36.751789 19.022501 36 18.978516 L 36 5 L 35 5 L 0 5 z M 2 7 L 34 7 L 34 43 L 2 43 L 2 7 z M 12 13 C 10.35503 13 9 14.35503 9 16 C 9 17.64497 10.35503 19 12 19 L 24 19 C 25.64497 19 27 17.64497 27 16 C 27 14.35503 25.64497 13 24 13 L 12 13 z M 12 15 L 24 15 C 24.56503 15 25 15.43497 25 16 C 25 16.56503 24.56503 17 24 17 L 12 17 C 11.43497 17 11 16.56503 11 16 C 11 15.43497 11.43497 15 12 15 z M 36 20.972656 C 36.412182 21.006165 36.720301 21.104136 36.982422 21.244141 C 37.402798 21.468671 37.764034 21.839097 38.238281 22.294922 L 38.931641 22.958984 L 39.625 22.294922 C 40.41467 21.537609 41.234047 20.998047 42.998047 20.998047 C 45.254533 20.998047 47.265625 23.256157 47.265625 25.808594 C 47.265625 28.796892 46.118858 31.108033 44.759766 32.6875 C 44.08022 33.477233 43.345337 34.076874 42.705078 34.464844 C 42.064819 34.852815 41.488431 35 41.332031 35 C 40.364571 35 40.09071 34.92883 39.359375 34.583984 L 38.910156 34.373047 L 38.470703 34.601562 C 37.796495 34.953508 37.495764 35 36.533203 35 C 36.493208 35 36.271904 34.926665 36 34.808594 L 36 20.972656 z"/></svg>