<svg fill="#000000" xmlns="http://www.w3.org/2000/svg"  viewBox="0 0 50 50" width="50px" height="50px"><path d="M 14.589844 3 L 5.5898438 12 L 5 12.589844 L 5 14 L 5 43.550781 L 5 45 L 35 45 L 37 45 L 38.449219 45 L 39 44.380859 L 47 35.380859 L 47 4.3808594 L 47 3 L 14.589844 3 z M 15.410156 5 L 43.769531 5 L 37.550781 12 L 8.4101562 12 L 15.410156 5 z M 45 6.6308594 L 45 34.619141 L 39 41.369141 L 39 13.380859 L 45 6.6308594 z M 7 14 L 15 14 L 15 21.910156 C 15.61 21.440156 16.28 21.070781 17 20.800781 L 17 14 L 37 14 L 37 34 L 35.410156 34 C 35.170156 34.71 34.869062 35.37 34.539062 36 L 37 36 L 37 43 L 35 43 L 8.6191406 43 L 14.650391 37.599609 C 14.250391 37.069609 13.879062 36.500391 13.539062 35.900391 L 7 41.759766 L 7 14 z M 21.445312 18.105469 L 20.554688 19.894531 C 22.334554 20.77957 22.638185 21.636542 22.705078 22.285156 C 22.734798 22.573325 22.66993 22.586733 22.625 22.775391 C 21.673816 22.447057 20.684291 22.267578 19.800781 22.267578 C 16.330265 22.267578 13.599609 25.292447 13.599609 28.90625 C 13.599609 32.022881 14.962783 34.801416 16.564453 36.822266 C 17.365288 37.83269 18.228261 38.658256 19.058594 39.253906 C 19.888927 39.849557 20.643697 40.267578 21.533203 40.267578 C 22.436732 40.267578 23.161803 40.0515 23.914062 39.738281 C 24.65935 40.044181 25.363936 40.267578 26.332031 40.267578 C 27.137943 40.267578 27.908625 39.944793 28.748047 39.427734 C 29.587468 38.910676 30.467602 38.170221 31.28125 37.208984 C 32.908545 35.28651 34.265625 32.459735 34.265625 28.90625 C 34.265625 25.292447 31.536922 22.267578 28.066406 22.267578 C 26.963141 22.267578 25.720897 22.586793 24.591797 23.134766 C 24.650957 22.802883 24.738558 22.499397 24.695312 22.080078 C 24.562206 20.789443 23.665446 19.20943 21.445312 18.105469 z M 19.800781 24.267578 C 20.910733 24.267578 22.710697 24.805501 23.234375 25.316406 L 23.933594 25.998047 L 24.630859 25.316406 C 25.154537 24.805501 26.956454 24.267578 28.066406 24.267578 C 30.37389 24.267578 32.265625 26.280053 32.265625 28.90625 C 32.265625 31.952765 31.114611 34.30849 29.753906 35.916016 C 29.073554 36.719779 28.339172 37.330418 27.699219 37.724609 C 27.059265 38.118801 26.483119 38.267578 26.332031 38.267578 C 25.365841 38.267578 25.095709 38.196478 24.365234 37.845703 L 23.910156 37.626953 L 23.464844 37.863281 C 22.791123 38.220904 22.494463 38.267578 21.533203 38.267578 C 21.465713 38.267578 20.873652 38.094506 20.224609 37.628906 C 19.575567 37.163307 18.825978 36.454653 18.132812 35.580078 C 16.746484 33.830927 15.599609 31.429619 15.599609 28.90625 C 15.599609 26.280053 17.493297 24.267578 19.800781 24.267578 z"/></svg>