<svg fill="#000000" xmlns="http://www.w3.org/2000/svg"  viewBox="0 0 50 50" width="50px" height="50px"><path d="M 21.447266 0.10546875 L 20.552734 1.8945312 C 22.284406 2.7603673 22.814789 3.9216003 23.019531 4.9453125 C 23.074881 5.2220597 23.098744 5.4755641 23.107422 5.7070312 C 22.010433 5.2246185 20.795673 5 19.730469 5 C 16.217719 5 13.357422 7.8180642 13.357422 11.287109 C 13.357422 14.194977 14.490925 16.804906 15.890625 18.716797 C 16.235599 19.188007 16.598431 19.616877 16.96875 20 L 6 20 L 6 50 L 44 50 L 44 49 L 44 20 L 31.285156 20 C 31.557832 19.716285 31.82791 19.415107 32.089844 19.080078 C 33.514657 17.257655 34.642578 14.606136 34.642578 11.287109 C 34.642578 7.8178363 31.782281 5 28.269531 5 C 27.272907 5 26.143593 5.195799 25.103516 5.6152344 C 25.091306 5.2887927 25.055794 4.9313573 24.980469 4.5546875 C 24.685143 3.0783997 23.715594 1.2396328 21.447266 0.10546875 z M 19.730469 7 C 20.905155 7 22.797059 7.5217723 23.337891 8 L 24 8.5839844 L 24.662109 8 C 25.202941 7.5217723 27.094845 7 28.269531 7 C 30.726781 7 32.642578 8.9063833 32.642578 11.287109 C 32.642578 14.155083 31.678062 16.360829 30.515625 17.847656 C 29.353188 19.334483 27.874634 20 27.480469 20 L 20.521484 20 C 20.40019 20 19.891566 19.847612 19.320312 19.423828 C 18.749059 19.000045 18.099634 18.348164 17.505859 17.537109 C 16.318309 15.915 15.357422 13.667241 15.357422 11.287109 C 15.357422 8.9061554 17.273219 7 19.730469 7 z M 8 22 L 20.521484 22 L 27.480469 22 L 42 22 L 42 48 L 8 48 L 8 22 z M 19 26 C 17.35503 26 16 27.35503 16 29 C 16 30.64497 17.35503 32 19 32 L 31 32 C 32.64497 32 34 30.64497 34 29 C 34 27.35503 32.64497 26 31 26 L 19 26 z M 19 28 L 31 28 C 31.56503 28 32 28.43497 32 29 C 32 29.56503 31.56503 30 31 30 L 19 30 C 18.43497 30 18 29.56503 18 29 C 18 28.43497 18.43497 28 19 28 z"/></svg>