<svg fill="#000000" xmlns="http://www.w3.org/2000/svg"  viewBox="0 0 50 50" width="50px" height="50px"><path d="M 0 6 L 0 46 L 27 46 L 27 6 L 26 6 L 0 6 z M 2 8 L 25 8 L 25 44 L 2 44 L 2 8 z M 9 14 C 7.3550302 14 6 15.35503 6 17 C 6 18.64497 7.3550302 20 9 20 L 18 20 C 19.64497 20 21 18.64497 21 17 C 21 15.35503 19.64497 14 18 14 L 9 14 z M 9 16 L 18 16 C 18.56503 16 19 16.43497 19 17 C 19 17.56503 18.56503 18 18 18 L 9 18 C 8.4349698 18 8 17.56503 8 17 C 8 16.43497 8.4349698 16 9 16 z M 41.554688 23.105469 C 39.284979 24.234081 38.314728 26.073173 38.019531 27.550781 C 37.943379 27.931959 37.908292 28.291337 37.896484 28.621094 C 36.94752 28.207354 35.926522 28 35.013672 28 C 31.62544 28 29 31.044343 29 34.640625 C 29 38.185069 30.306597 41.003959 31.876953 42.927734 C 32.662131 43.889622 33.510581 44.632659 34.324219 45.152344 C 35.137857 45.672028 35.884574 46 36.685547 46 C 37.557839 46 38.268658 45.780801 39 45.466797 C 39.731358 45.780599 40.442161 46 41.314453 46 C 42.115426 46 42.862143 45.672028 43.675781 45.152344 C 44.489419 44.632659 45.337869 43.889622 46.123047 42.927734 C 47.693403 41.003959 49 38.185069 49 34.640625 C 49 31.044343 46.37456 28 42.986328 28 C 42.225351 28 41.36968 28.125535 40.541016 28.380859 C 40.312669 28.451043 40.099769 28.555925 39.892578 28.671875 C 39.902591 28.449491 39.928044 28.203772 39.980469 27.941406 C 40.185272 26.916265 40.715021 25.754919 42.445312 24.894531 L 41.554688 23.105469 z M 35.013672 30 C 36.068382 30 37.788925 30.531804 38.289062 31.037109 L 39 31.755859 L 39.710938 31.035156 C 39.959662 30.783573 40.503705 30.485007 41.128906 30.292969 L 41.130859 30.292969 C 41.756148 30.100293 42.459305 30 42.986328 30 C 45.168097 30 47 31.996907 47 34.640625 C 47 37.696181 45.885362 40.055884 44.574219 41.662109 C 43.918647 42.465222 43.212659 43.075232 42.599609 43.466797 C 41.98656 43.858362 41.43648 44 41.314453 44 C 40.39258 44 40.126919 43.958115 39.482422 43.603516 L 39 43.337891 L 38.517578 43.603516 C 37.874686 43.957694 37.60742 44 36.685547 44 C 36.56352 44 36.01344 43.858362 35.400391 43.466797 C 34.787341 43.075232 34.081353 42.465222 33.425781 41.662109 C 32.114638 40.055884 31 37.696181 31 34.640625 C 31 31.996907 32.831903 30 35.013672 30 z"/></svg>