<svg fill="#000000" xmlns="http://www.w3.org/2000/svg"  viewBox="0 0 50 50" width="50px" height="50px"><path d="M 14 4 L 14 27 C 14.69 27 15.36 27.099531 16 27.269531 L 16 6 L 48 6 L 48 42 L 20.660156 42 C 20.350156 42.72 19.980078 43.38 19.580078 44 L 50 44 L 50 4 L 14 4 z M 26 12 C 24.35 12 23 13.35 23 15 C 23 16.65 24.35 18 26 18 L 38 18 C 39.65 18 41 16.65 41 15 C 41 13.35 39.65 12 38 12 L 26 12 z M 26 14 L 38 14 C 38.55 14 39 14.45 39 15 C 39 15.55 38.55 16 38 16 L 26 16 C 25.45 16 25 15.55 25 15 C 25 14.45 25.45 14 26 14 z M 7.3339844 24.105469 L 6.4433594 25.894531 C 8.1736522 26.754919 8.7034001 27.916265 8.9082031 28.941406 C 8.9821971 29.311781 8.9143494 29.314641 8.9121094 29.597656 C 7.9428531 29.220352 6.9258896 29 6.0136719 29 C 2.6254403 29 1.1842379e-15 32.044343 0 35.640625 C 0 39.185069 1.3065968 42.003959 2.8769531 43.927734 C 3.6621313 44.889622 4.5105807 45.632659 5.3242188 46.152344 C 6.1378566 46.672028 6.8845741 47 7.6855469 47 C 8.5578387 47 9.2686579 46.780801 10 46.466797 C 10.731358 46.780599 11.442161 47 12.314453 47 C 13.115426 47 13.862143 46.672028 14.675781 46.152344 C 15.489419 45.632659 16.337869 44.889622 17.123047 43.927734 C 18.693403 42.003959 20 39.185069 20 35.640625 C 20 32.044343 17.37456 29 13.986328 29 C 13.225351 29 12.36968 29.125535 11.541016 29.380859 C 11.29279 29.457149 11.105183 29.657172 10.865234 29.757812 C 10.892744 29.286835 11.001536 29.213452 10.869141 28.550781 C 10.573944 27.073173 9.6036916 25.234081 7.3339844 24.105469 z M 6.0136719 31 C 7.0683817 31 8.7889246 31.531804 9.2890625 32.037109 L 10 32.755859 L 10.710938 32.035156 C 10.959661 31.783573 11.503705 31.485007 12.128906 31.292969 L 12.130859 31.292969 C 12.756148 31.100293 13.459305 31 13.986328 31 C 16.168097 31 18 32.996907 18 35.640625 C 18 38.696181 16.885362 41.055884 15.574219 42.662109 C 14.918647 43.465222 14.212659 44.075232 13.599609 44.466797 C 12.98656 44.858362 12.43648 45 12.314453 45 C 11.39258 45 11.126919 44.958115 10.482422 44.603516 L 10 44.337891 L 9.5175781 44.603516 C 8.8746863 44.957694 8.60742 45 7.6855469 45 C 7.5635196 45 7.0134402 44.858362 6.4003906 44.466797 C 5.7873411 44.075232 5.0813531 43.465222 4.4257812 42.662109 C 3.1146376 41.055884 2 38.696181 2 35.640625 C 2 32.996907 3.8319035 31 6.0136719 31 z"/></svg>