<svg fill="#000000" xmlns="http://www.w3.org/2000/svg"  viewBox="0 0 50 50" width="50px" height="50px"><path d="M 2 12 C 0.90625 12 0 12.90625 0 14 L 0 36 C 0 37.09375 0.90625 38 2 38 L 48 38 C 49.09375 38 50 37.09375 50 36 L 50 14 C 50 12.90625 49.09375 12 48 12 Z M 2 14 L 48 14 L 48 36 L 2 36 Z M 28.90625 20.8125 C 26.421875 20.8125 24.84375 22.507813 24.84375 25.25 C 24.84375 27.992188 26.398438 29.6875 28.90625 29.6875 C 31.410156 29.6875 32.96875 27.992188 32.96875 25.25 C 32.96875 22.515625 31.402344 20.8125 28.90625 20.8125 Z M 7.59375 21.03125 L 7.59375 29.46875 L 9.375 29.46875 L 9.375 26.84375 L 11.03125 26.84375 C 12.8125 26.84375 14.0625 25.675781 14.0625 23.9375 C 14.0625 22.179688 12.863281 21.03125 11.125 21.03125 Z M 16.28125 21.03125 L 16.28125 29.46875 L 18.0625 29.46875 L 18.0625 26.40625 L 19.5 26.40625 L 21.0625 29.46875 L 23.0625 29.46875 L 21.28125 26.125 C 22.253906 25.738281 22.84375 24.796875 22.84375 23.71875 C 22.84375 22.035156 21.699219 21.03125 19.84375 21.03125 Z M 35.25 21.03125 L 35.25 29.46875 L 36.9375 29.46875 L 36.9375 24.1875 L 37.03125 24.1875 L 40.9375 29.46875 L 42.40625 29.46875 L 42.40625 21.03125 L 40.71875 21.03125 L 40.71875 26.28125 L 40.625 26.28125 L 36.71875 21.03125 Z M 28.90625 22.34375 C 30.285156 22.34375 31.15625 23.480469 31.15625 25.25 C 31.15625 27.015625 30.285156 28.125 28.90625 28.125 C 27.515625 28.125 26.65625 27.015625 26.65625 25.25 C 26.65625 23.480469 27.535156 22.34375 28.90625 22.34375 Z M 18.0625 22.4375 L 19.59375 22.4375 C 20.472656 22.4375 21 22.945313 21 23.75 C 21 24.566406 20.484375 25.0625 19.59375 25.0625 L 18.0625 25.0625 Z M 9.375 22.46875 L 10.65625 22.46875 C 11.675781 22.46875 12.25 22.976563 12.25 23.9375 C 12.25 24.886719 11.671875 25.40625 10.65625 25.40625 L 9.375 25.40625 Z"/></svg>