<svg fill="#000000" xmlns="http://www.w3.org/2000/svg"  viewBox="0 0 50 50" width="50px" height="50px"><path d="M 11.015625 3 C 9.4322921 3 8.1194705 3.6297556 7.2695312 4.5859375 C 6.4195921 5.5421194 6.015625 6.7777779 6.015625 8 C 6.015625 9.2222221 6.4195921 10.457881 7.2695312 11.414062 C 8.1194705 12.370245 9.4322921 13 11.015625 13 C 12.598958 13 13.913733 12.370244 14.763672 11.414062 C 15.613611 10.457882 16.015625 9.2222221 16.015625 8 C 16.015625 6.7777779 15.613611 5.5421194 14.763672 4.5859375 C 13.913733 3.6297556 12.598958 3 11.015625 3 z M 38.015625 3 C 36.432292 3 35.11947 3.6297556 34.269531 4.5859375 C 33.419592 5.5421194 33.015625 6.7777779 33.015625 8 C 33.015625 9.2222221 33.419592 10.457881 34.269531 11.414062 C 35.11947 12.370245 36.432292 13 38.015625 13 C 39.598958 13 40.913733 12.370244 41.763672 11.414062 C 42.613611 10.457882 43.015625 9.2222221 43.015625 8 C 43.015625 6.7777779 42.613611 5.5421194 41.763672 4.5859375 C 40.913733 3.6297556 39.598958 3 38.015625 3 z M 11.015625 5 C 12.098958 5 12.786138 5.3702444 13.269531 5.9140625 C 13.752925 6.4578806 14.015625 7.2222221 14.015625 8 C 14.015625 8.7777779 13.752925 9.5421189 13.269531 10.085938 C 12.786138 10.629755 12.098958 11 11.015625 11 C 9.9322924 11 9.2470655 10.629756 8.7636719 10.085938 C 8.2802782 9.5421189 8.015625 8.7777779 8.015625 8 C 8.015625 7.2222221 8.2802782 6.4578806 8.7636719 5.9140625 C 9.2470655 5.3702444 9.9322924 5 11.015625 5 z M 38.015625 5 C 39.098958 5 39.786138 5.3702444 40.269531 5.9140625 C 40.752925 6.4578806 41.015625 7.2222221 41.015625 8 C 41.015625 8.7777779 40.752925 9.5421189 40.269531 10.085938 C 39.786138 10.629755 39.098958 11 38.015625 11 C 36.932292 11 36.247066 10.629756 35.763672 10.085938 C 35.280278 9.5421189 35.015625 8.7777779 35.015625 8 C 35.015625 7.2222221 35.280278 6.4578806 35.763672 5.9140625 C 36.247066 5.3702444 36.932292 5 38.015625 5 z M 6.4765625 14 C 3.4522579 14 0.9765625 16.476746 0.9765625 19.5 L 0.9765625 30.929688 L 0.9765625 31 A 1.0001 1.0001 0 0 0 1.28125 31.732422 C 1.6424846 32.983691 2.6160254 34 3.9765625 34 C 4.328405 34 4.661671 33.92606 4.9765625 33.8125 L 4.9765625 43.5 C 4.9765625 45.421188 6.5553742 47 8.4765625 47 C 9.4557493 47 10.33896 46.584291 10.976562 45.927734 C 11.614164 46.584273 12.497392 47 13.476562 47 C 15.397752 47 16.976563 45.421188 16.976562 43.5 L 16.976562 23.824219 L 17.859375 25.148438 C 18.851932 26.637273 20.853948 27.108246 22.40625 26.216797 L 26.498047 23.867188 A 1.0001 1.0001 0 0 0 26.517578 23.855469 C 27.355331 23.348791 27.833874 22.552342 27.978516 21.802734 C 28.122726 21.055361 28.006746 20.364442 27.654297 19.789062 C 27.246535 19.112008 26.590391 18.601322 25.822266 18.421875 C 25.052303 18.241999 24.214428 18.389675 23.435547 18.802734 A 1.0001 1.0001 0 0 0 23.414062 18.814453 L 21.359375 19.974609 L 18.96875 16.304688 L 18.966797 16.300781 C 18.966797 16.300781 18.964844 16.298828 18.964844 16.298828 L 18.947266 16.271484 A 1.0001 1.0001 0 0 0 18.523438 15.900391 C 17.687048 14.875144 16.457906 14.268605 15.054688 14.130859 A 1.0001 1.0001 0 0 0 14.576172 14 L 14.476562 14 L 7.3769531 14 L 6.4765625 14 z M 35.65625 14 C 34.326413 14 33.289909 14.640463 32.654297 15.363281 C 32.046254 16.054749 31.743486 16.795465 31.583984 17.304688 C 31.565665 17.345738 30.674166 19.342782 29.671875 21.701172 C 28.662044 24.077303 27.573531 26.713299 27.15625 28.146484 C 26.58373 29.950057 27.799262 31.917969 29.638672 31.917969 C 29.655458 31.917969 29.672639 31.912368 29.689453 31.912109 L 29.115234 33.449219 A 1.0001 1.0001 0 0 0 29.076172 33.580078 C 29.035782 33.758684 28.979492 33.962478 28.966797 34.248047 C 28.954097 34.533616 29.018547 34.918899 29.208984 35.234375 A 1.0001 1.0001 0 0 0 29.324219 35.386719 C 29.551195 35.638456 29.695666 35.668087 29.816406 35.714844 C 29.937146 35.761604 30.040318 35.78819 30.144531 35.8125 C 30.352958 35.86111 30.564284 35.89339 30.775391 35.919922 C 31.197602 35.972989 31.538466 36 31.796875 36 L 33.933594 36 L 33.933594 44.082031 C 33.933594 45.685269 35.333594 46.916016 36.933594 46.916016 C 37.695586 46.916016 38.391946 46.605975 38.933594 46.140625 C 39.475087 46.605298 40.172217 46.916016 40.933594 46.916016 C 42.533594 46.916016 43.933594 45.685269 43.933594 44.082031 L 43.933594 36 L 45.164062 36 C 45.422472 36 45.763333 35.972992 46.185547 35.919922 C 46.396654 35.893382 46.607979 35.861112 46.816406 35.8125 C 46.92062 35.7882 47.023791 35.761604 47.144531 35.714844 C 47.265271 35.668084 47.409743 35.638454 47.636719 35.386719 A 1.0001 1.0001 0 0 0 47.75 35.234375 C 47.940433 34.918899 48.006838 34.533616 47.994141 34.248047 C 47.981441 33.962478 47.925161 33.758684 47.884766 33.580078 A 1.0001 1.0001 0 0 0 47.845703 33.449219 L 47.269531 31.912109 C 47.286342 31.912368 47.303526 31.917969 47.320312 31.917969 C 49.159723 31.917969 50.375254 29.950057 49.802734 28.146484 C 49.385453 26.713299 48.29694 24.077303 47.287109 21.701172 C 46.284819 19.342782 45.39332 17.345738 45.375 17.304688 C 45.215667 16.795468 44.914683 16.054749 44.306641 15.363281 C 43.671029 14.640463 42.634524 14 41.304688 14 L 38.960938 14 L 35.65625 14 z M 6.4765625 16 L 7.3769531 16 L 14.462891 16 L 14.476562 16 C 15.725914 16 16.802053 16.584749 17.25 17.328125 C 17.25 17.328125 17.251953 17.330078 17.251953 17.330078 A 1.0001 1.0001 0 0 0 17.271484 17.363281 L 20.195312 21.851562 A 1.0001 1.0001 0 0 0 21.523438 22.177734 L 24.373047 20.570312 C 24.814166 20.336375 25.13765 20.315517 25.367188 20.369141 C 25.596725 20.422761 25.776901 20.544738 25.943359 20.822266 A 1.0001 1.0001 0 0 0 25.949219 20.832031 C 25.977299 20.877631 26.065479 21.165436 26.015625 21.423828 C 25.965765 21.682221 25.851669 21.921209 25.482422 22.144531 L 21.410156 24.482422 C 20.754458 24.858973 19.94288 24.668227 19.523438 24.039062 L 16.820312 19.984375 A 1.0001 1.0001 0 0 0 14.980469 20.542969 A 1.0001 1.0001 0 0 0 14.980469 20.556641 A 1.0001 1.0001 0 0 0 14.976562 20.634766 L 14.976562 43.5 C 14.976562 44.340812 14.317374 45 13.476562 45 C 12.635751 45 11.976563 44.340812 11.976562 43.5 L 11.976562 32 A 1.0001 1.0001 0 0 0 10.960938 30.986328 A 1.0001 1.0001 0 0 0 9.9765625 32 L 9.9765625 43.429688 L 9.9765625 43.5 C 9.9765625 44.340812 9.3173742 45 8.4765625 45 C 7.6357508 45 6.9765625 44.340812 6.9765625 43.5 L 6.9765625 31 L 6.9765625 22 A 1.0001 1.0001 0 1 0 4.9765625 22 L 4.9765625 31 C 4.9765625 31.56503 4.5415927 32 3.9765625 32 C 3.4115323 32 2.9765625 31.56503 2.9765625 31 L 2.9765625 19.5 C 2.9765625 17.561254 4.5368671 16 6.4765625 16 z M 35.65625 16 L 38.960938 16 L 41.304688 16 C 42.039851 16 42.449049 16.279162 42.804688 16.683594 C 43.160325 17.088025 43.389421 17.639203 43.484375 17.955078 A 1.0001 1.0001 0 0 0 43.529297 18.074219 C 43.529297 18.074219 44.442797 20.118908 45.447266 22.482422 C 46.451734 24.845936 47.559447 27.58523 47.888672 28.720703 A 1.0001 1.0001 0 0 0 47.896484 28.748047 C 48.140875 29.507256 47.788886 29.917969 47.320312 29.917969 C 47.170851 29.917969 46.881336 29.855649 46.681641 29.753906 C 46.481946 29.652166 46.403405 29.543786 46.390625 29.505859 A 1.0001 1.0001 0 0 0 46.279297 29.265625 L 43.429688 21.650391 A 1.0001 1.0001 0 0 0 42.515625 20.986328 A 1.0001 1.0001 0 0 0 41.556641 22.349609 L 45.894531 33.939453 C 45.564199 33.977811 45.154208 34 45.164062 34 L 38.876953 34 L 34.933594 34 L 31.796875 34 C 31.806775 34 31.396738 33.977813 31.066406 33.939453 L 35.402344 22.349609 A 1.0001 1.0001 0 0 0 34.414062 20.988281 A 1.0001 1.0001 0 0 0 33.529297 21.650391 L 30.679688 29.267578 A 1.0001 1.0001 0 0 0 30.570312 29.505859 C 30.557533 29.543789 30.478992 29.652166 30.279297 29.753906 C 30.079602 29.855647 29.788133 29.917969 29.638672 29.917969 C 29.1701 29.917969 28.818109 29.507256 29.0625 28.748047 A 1.0001 1.0001 0 0 0 29.072266 28.720703 C 29.401491 27.58523 30.509203 24.845936 31.513672 22.482422 C 32.51814 20.118908 33.429687 18.074219 33.429688 18.074219 A 1.0001 1.0001 0 0 0 33.474609 17.955078 C 33.569559 17.639203 33.800612 17.088025 34.15625 16.683594 C 34.511857 16.279158 34.921087 16 35.65625 16 z M 35.933594 36 L 37.933594 36 L 37.933594 44.082031 C 37.933594 44.494793 37.533594 44.916016 36.933594 44.916016 C 36.333594 44.916016 35.933594 44.494793 35.933594 44.082031 L 35.933594 36 z M 39.933594 36 L 41.933594 36 L 41.933594 44.082031 C 41.933594 44.494793 41.533594 44.916016 40.933594 44.916016 C 40.333594 44.916016 39.933594 44.494793 39.933594 44.082031 L 39.933594 36 z"/></svg>