<svg fill="#000000" xmlns="http://www.w3.org/2000/svg"  viewBox="0 0 50 50" width="50px" height="50px"><path d="M 11.015625 3 C 9.4322921 3 8.1194705 3.6297556 7.2695312 4.5859375 C 6.4195921 5.5421194 6.015625 6.7777779 6.015625 8 C 6.015625 9.2222221 6.4195921 10.457881 7.2695312 11.414062 C 8.1194705 12.370245 9.4322921 13 11.015625 13 C 12.598958 13 13.913733 12.370244 14.763672 11.414062 C 15.613611 10.457882 16.015625 9.2222221 16.015625 8 C 16.015625 6.7777779 15.613611 5.5421194 14.763672 4.5859375 C 13.913733 3.6297556 12.598958 3 11.015625 3 z M 40.015625 3 C 38.432292 3 37.11947 3.6297556 36.269531 4.5859375 C 35.419592 5.5421194 35.015625 6.7777779 35.015625 8 C 35.015625 9.2222221 35.419592 10.457881 36.269531 11.414062 C 37.11947 12.370245 38.432292 13 40.015625 13 C 41.598958 13 42.913733 12.370244 43.763672 11.414062 C 44.613611 10.457882 45.015625 9.2222221 45.015625 8 C 45.015625 6.7777779 44.613611 5.5421194 43.763672 4.5859375 C 42.913733 3.6297556 41.598958 3 40.015625 3 z M 11.015625 5 C 12.098958 5 12.786138 5.3702444 13.269531 5.9140625 C 13.752925 6.4578806 14.015625 7.2222221 14.015625 8 C 14.015625 8.7777779 13.752925 9.5421189 13.269531 10.085938 C 12.786138 10.629755 12.098958 11 11.015625 11 C 9.9322924 11 9.2470655 10.629756 8.7636719 10.085938 C 8.2802782 9.5421189 8.015625 8.7777779 8.015625 8 C 8.015625 7.2222221 8.2802782 6.4578806 8.7636719 5.9140625 C 9.2470655 5.3702444 9.9322924 5 11.015625 5 z M 40.015625 5 C 41.098958 5 41.786138 5.3702444 42.269531 5.9140625 C 42.752925 6.4578806 43.015625 7.2222221 43.015625 8 C 43.015625 8.7777779 42.752925 9.5421189 42.269531 10.085938 C 41.786138 10.629755 41.098958 11 40.015625 11 C 38.932292 11 38.247066 10.629756 37.763672 10.085938 C 37.280278 9.5421189 37.015625 8.7777779 37.015625 8 C 37.015625 7.2222221 37.280278 6.4578806 37.763672 5.9140625 C 38.247066 5.3702444 38.932292 5 40.015625 5 z M 6.4765625 14 C 3.4522579 14 0.9765625 16.476746 0.9765625 19.5 L 0.9765625 30.929688 A 1.0001 1.0001 0 0 0 0.9765625 31 A 1.0001 1.0001 0 0 0 1.28125 31.732422 C 1.6424846 32.983693 2.6160254 34 3.9765625 34 C 4.328405 34 4.661671 33.92606 4.9765625 33.8125 L 4.9765625 43.5 C 4.9765625 45.421188 6.5553742 47 8.4765625 47 C 9.4557493 47 10.33896 46.584291 10.976562 45.927734 C 11.614164 46.584273 12.497392 47 13.476562 47 C 15.397752 47 16.976563 45.421188 16.976562 43.5 L 16.976562 23.824219 L 17.859375 25.148438 C 18.851932 26.637273 20.853948 27.108246 22.40625 26.216797 L 26.498047 23.867188 A 1.0001 1.0001 0 0 0 26.517578 23.855469 C 27.355331 23.348791 27.833874 22.552342 27.978516 21.802734 C 28.122726 21.055361 28.006746 20.364442 27.654297 19.789062 C 27.246535 19.112008 26.590391 18.601322 25.822266 18.421875 C 25.052303 18.241999 24.214428 18.389675 23.435547 18.802734 A 1.0001 1.0001 0 0 0 23.414062 18.814453 L 21.359375 19.974609 L 18.96875 16.304688 L 18.966797 16.300781 C 18.966797 16.300781 18.964844 16.298828 18.964844 16.298828 L 18.947266 16.271484 A 1.0001 1.0001 0 0 0 18.523438 15.900391 C 17.687048 14.875144 16.457906 14.268605 15.054688 14.130859 A 1.0001 1.0001 0 0 0 14.576172 14 L 14.476562 14 L 7.3769531 14 L 6.4765625 14 z M 35.5 14 C 32.475695 14 30 16.476746 30 19.5 L 30 31 A 1.0001 1.0001 0 0 0 30.304688 31.732422 C 30.665921 32.983691 31.639463 34 33 34 C 33.351843 34 33.685108 33.92606 34 33.8125 L 34 43.5 C 34 45.421188 35.578812 47 37.5 47 C 38.479187 47 39.362396 46.584291 40 45.927734 C 40.637604 46.584291 41.520813 47 42.5 47 C 44.421188 47 46 45.421188 46 43.5 L 46 33.8125 C 46.314892 33.92606 46.648157 34 47 34 C 48.360537 34 49.334079 32.983691 49.695312 31.732422 A 1.0001 1.0001 0 0 0 50 31 L 50 19.5 C 50 16.476746 47.524305 14 44.5 14 L 43.599609 14 L 36.400391 14 L 35.5 14 z M 6.4765625 16 L 7.3769531 16 L 14.462891 16 L 14.476562 16 C 15.725914 16 16.802053 16.584749 17.25 17.328125 C 17.25 17.328125 17.251953 17.330078 17.251953 17.330078 A 1.0001 1.0001 0 0 0 17.271484 17.363281 L 20.195312 21.851562 A 1.0001 1.0001 0 0 0 21.523438 22.177734 L 24.373047 20.570312 C 24.814166 20.336375 25.13765 20.315517 25.367188 20.369141 C 25.596725 20.422761 25.776901 20.544738 25.943359 20.822266 A 1.0001 1.0001 0 0 0 25.949219 20.832031 C 25.977299 20.877631 26.065479 21.165436 26.015625 21.423828 C 25.965765 21.682221 25.851669 21.921209 25.482422 22.144531 L 21.410156 24.482422 C 20.754458 24.858973 19.94288 24.668227 19.523438 24.039062 L 16.820312 19.984375 A 1.0001 1.0001 0 0 0 14.980469 20.542969 A 1.0001 1.0001 0 0 0 14.980469 20.556641 A 1.0001 1.0001 0 0 0 14.976562 20.634766 L 14.976562 43.5 C 14.976562 44.340812 14.317374 45 13.476562 45 C 12.635751 45 11.976562 44.340812 11.976562 43.5 L 11.976562 32 A 1.0001 1.0001 0 0 0 10.960938 30.986328 A 1.0001 1.0001 0 0 0 9.9765625 32 L 9.9765625 43.429688 L 9.9765625 43.5 C 9.9765625 44.340812 9.3173742 45 8.4765625 45 C 7.6357508 45 6.9765625 44.340812 6.9765625 43.5 L 6.9765625 31 L 6.9765625 22 A 1.0001 1.0001 0 1 0 4.9765625 22 L 4.9765625 31 C 4.9765625 31.56503 4.5415927 32 3.9765625 32 C 3.4115323 32 2.9765625 31.56503 2.9765625 31 L 2.9765625 19.5 C 2.9765625 17.561254 4.5368671 16 6.4765625 16 z M 35.5 16 L 36.400391 16 L 43.599609 16 L 44.5 16 C 46.439695 16 48 17.561254 48 19.5 L 48 31 C 48 31.56503 47.56503 32 47 32 C 46.43497 32 46 31.56503 46 31 L 46 22 A 1.0001 1.0001 0 1 0 44 22 L 44 43.5 C 44 44.340812 43.340812 45 42.5 45 C 41.659188 45 41 44.340812 41 43.5 L 41 32 A 1.0001 1.0001 0 0 0 39.984375 30.986328 A 1.0001 1.0001 0 0 0 39 32 L 39 43.5 C 39 44.340812 38.340812 45 37.5 45 C 36.659188 45 36 44.340812 36 43.5 L 36 22 A 1.0001 1.0001 0 0 0 34.984375 20.986328 A 1.0001 1.0001 0 0 0 34 22 L 34 31 C 34 31.56503 33.56503 32 33 32 C 32.43497 32 32 31.56503 32 31 L 32 19.5 C 32 17.561254 33.560305 16 35.5 16 z"/></svg>