<svg fill="#000000" xmlns="http://www.w3.org/2000/svg"  viewBox="0 0 50 50" width="50px" height="50px"><path d="M 2 12 C 0.90625 12 0 12.90625 0 14 L 0 36 C 0 37.09375 0.90625 38 2 38 L 48 38 C 49.09375 38 50 37.09375 50 36 L 50 14 C 50 12.90625 49.09375 12 48 12 Z M 2 14 L 48 14 L 48 36 L 2 36 Z M 8.125 21 L 11 29.4375 L 13.125 29.4375 L 15.9375 21 L 14.0625 21 L 12.15625 27.46875 L 12.0625 27.46875 L 10.125 21 Z M 18 21 L 18 29.4375 L 23.59375 29.4375 L 23.59375 27.9375 L 19.75 27.9375 L 19.75 25.875 L 23.375 25.875 L 23.375 24.46875 L 19.75 24.46875 L 19.75 22.5 L 23.59375 22.5 L 23.59375 21 Z M 26.0625 21 L 26.0625 29.4375 L 27.84375 29.4375 L 27.84375 26.375 L 29.28125 26.375 L 30.84375 29.4375 L 32.84375 29.4375 L 31.0625 26.09375 C 32.035156 25.707031 32.625 24.796875 32.625 23.71875 C 32.625 22.035156 31.480469 21 29.625 21 Z M 35 21 L 35 29.4375 L 38.78125 29.4375 C 40.585938 29.4375 41.71875 28.511719 41.71875 27.03125 C 41.71875 25.941406 40.898438 25.082031 39.78125 25 L 39.78125 24.90625 C 40.648438 24.777344 41.3125 23.988281 41.3125 23.09375 C 41.3125 21.789063 40.328125 21 38.6875 21 Z M 36.75 22.34375 L 38.25 22.34375 C 39.09375 22.34375 39.5625 22.761719 39.5625 23.4375 C 39.5625 24.117188 39.046875 24.5 38.09375 24.5 L 36.75 24.5 Z M 27.84375 22.4375 L 29.375 22.4375 C 30.253906 22.4375 30.78125 22.914063 30.78125 23.71875 C 30.78125 24.535156 30.265625 25.03125 29.375 25.03125 L 27.84375 25.03125 Z M 36.75 25.6875 L 38.28125 25.6875 C 39.324219 25.6875 39.90625 26.101563 39.90625 26.875 C 39.90625 27.664063 39.363281 28.09375 38.34375 28.09375 L 36.75 28.09375 Z"/></svg>