<svg fill="#000000" xmlns="http://www.w3.org/2000/svg"  viewBox="0 0 50 50" width="50px" height="50px"><path d="M 12.015625 3 C 10.432292 3 9.1194705 3.6297556 8.2695312 4.5859375 C 7.4195922 5.5421194 7.015625 6.7777779 7.015625 8 C 7.015625 9.2222221 7.4195922 10.457881 8.2695312 11.414062 C 9.1194705 12.370245 10.432292 13 12.015625 13 C 13.598958 13 14.913733 12.370244 15.763672 11.414062 C 16.613611 10.457882 17.015625 9.2222221 17.015625 8 C 17.015625 6.7777779 16.613611 5.5421194 15.763672 4.5859375 C 14.913733 3.6297556 13.598958 3 12.015625 3 z M 38.015625 3 C 36.432292 3 35.11947 3.6297556 34.269531 4.5859375 C 33.419592 5.5421194 33.015625 6.7777779 33.015625 8 C 33.015625 9.2222221 33.419592 10.457881 34.269531 11.414062 C 35.11947 12.370245 36.432292 13 38.015625 13 C 39.598958 13 40.913733 12.370244 41.763672 11.414062 C 42.613611 10.457882 43.015625 9.2222221 43.015625 8 C 43.015625 6.7777779 42.613611 5.5421194 41.763672 4.5859375 C 40.913733 3.6297556 39.598958 3 38.015625 3 z M 12.015625 5 C 13.098958 5 13.786138 5.3702444 14.269531 5.9140625 C 14.752925 6.4578806 15.015625 7.2222221 15.015625 8 C 15.015625 8.7777779 14.752925 9.5421189 14.269531 10.085938 C 13.786138 10.629755 13.098958 11 12.015625 11 C 10.932292 11 10.247066 10.629756 9.7636719 10.085938 C 9.2802782 9.5421189 9.015625 8.7777779 9.015625 8 C 9.015625 7.2222221 9.2802782 6.4578806 9.7636719 5.9140625 C 10.247066 5.3702444 10.932292 5 12.015625 5 z M 38.015625 5 C 39.098958 5 39.786138 5.3702444 40.269531 5.9140625 C 40.752925 6.4578806 41.015625 7.2222221 41.015625 8 C 41.015625 8.7777779 40.752925 9.5421189 40.269531 10.085938 C 39.786138 10.629755 39.098958 11 38.015625 11 C 36.932292 11 36.247066 10.629756 35.763672 10.085938 C 35.280278 9.5421189 35.015625 8.7777779 35.015625 8 C 35.015625 7.2222221 35.280278 6.4578806 35.763672 5.9140625 C 36.247066 5.3702444 36.932292 5 38.015625 5 z M 7.5 14 C 5.6836172 14 3.7466133 14.786334 3.1015625 16.558594 A 1.0001 1.0001 0 0 0 3.0800781 16.607422 C 3.0709917 16.633681 3.0553915 16.654953 3.046875 16.681641 A 1.0003436 1.0003436 0 0 0 3.0175781 16.798828 L 1.0957031 23.853516 C 0.43569989 26.269775 2.7304883 28.564774 5.1464844 27.90625 A 1.0001 1.0001 0 0 0 5.1914062 27.892578 L 6 27.630859 L 6 43.5 C 6 45.421188 7.5788117 47 9.5 47 C 10.479187 47 11.362396 46.584291 12 45.927734 C 12.637604 46.584291 13.520813 47 14.5 47 C 16.421188 47 18 45.421188 18 43.5 L 18 33.8125 C 18.314892 33.92606 18.648157 34 19 34 C 20.360537 34 21.334079 32.983691 21.695312 31.732422 A 1.0001 1.0001 0 0 0 22 31 L 22 19.5 C 22 16.476746 19.524305 14 16.5 14 L 15.599609 14 L 8.4003906 14 L 7.5 14 z M 34.65625 14 C 33.326413 14 32.289909 14.640463 31.654297 15.363281 C 31.046254 16.054749 30.743486 16.795465 30.583984 17.304688 C 30.565665 17.345738 29.674166 19.342782 28.671875 21.701172 C 27.662044 24.077303 26.573531 26.713299 26.15625 28.146484 C 25.58373 29.950057 26.799262 31.917969 28.638672 31.917969 C 28.655458 31.917969 28.672639 31.912368 28.689453 31.912109 L 28.115234 33.449219 A 1.0001 1.0001 0 0 0 28.076172 33.580078 C 28.035782 33.758684 27.979492 33.962478 27.966797 34.248047 C 27.954097 34.533616 28.018547 34.918899 28.208984 35.234375 A 1.0001 1.0001 0 0 0 28.324219 35.386719 C 28.551195 35.638456 28.695666 35.668087 28.816406 35.714844 C 28.937146 35.761604 29.040318 35.78819 29.144531 35.8125 C 29.352958 35.86111 29.564284 35.89339 29.775391 35.919922 C 30.197602 35.972942 30.538466 36 30.796875 36 L 32.933594 36 L 32.933594 44.082031 C 32.933594 45.685269 34.333594 46.916016 35.933594 46.916016 C 36.695586 46.916016 37.391946 46.605975 37.933594 46.140625 C 38.475087 46.605298 39.172217 46.916016 39.933594 46.916016 C 41.533594 46.916016 42.933594 45.685269 42.933594 44.082031 L 42.933594 36 L 44.982422 36 C 45.117175 36 45.344917 36.009705 45.646484 35.921875 C 45.948051 35.834035 46.330267 35.59018 46.544922 35.232422 C 46.953138 34.552062 46.806863 33.926611 46.681641 33.511719 L 44.783203 27.21875 C 45.463745 27.171144 46.074853 26.950815 46.550781 26.533203 C 47.395266 25.792195 47.6275 24.578184 47.320312 23.451172 A 1.0001 1.0001 0 0 0 47.294922 23.373047 L 45.189453 17.580078 A 1.0001 1.0001 0 0 0 45.130859 17.447266 A 1.0001 1.0001 0 0 0 45.111328 17.378906 C 44.958282 16.869781 44.65319 16.0861 44.017578 15.363281 C 43.381966 14.640463 42.345462 14 41.015625 14 L 37.960938 14 L 34.65625 14 z M 7.5 16 L 8.4003906 16 L 15.599609 16 L 16.5 16 C 18.439695 16 20 17.561254 20 19.5 L 20 31 C 20 31.56503 19.56503 32 19 32 C 18.43497 32 18 31.56503 18 31 L 18 22 A 1.0001 1.0001 0 0 0 16.984375 20.986328 A 1.0001 1.0001 0 0 0 16 22 L 16 31 L 16 43.5 C 16 44.340812 15.340812 45 14.5 45 C 13.659188 45 13 44.340812 13 43.5 L 13 32 A 1.0001 1.0001 0 0 0 11.984375 30.986328 A 1.0001 1.0001 0 0 0 11 32 L 11 43.5 C 11 44.340812 10.340812 45 9.5 45 C 8.6591883 45 8 44.340812 8 43.5 L 8 27 A 1.0001 1.0001 0 0 0 8 26.986328 L 12.486328 25.539062 C 14.002597 25.049419 14.891962 23.448233 14.505859 21.902344 C 14.079227 20.195811 12.257401 19.193497 10.587891 19.75 L 6.6835938 21.050781 A 1.0005646 1.0005646 0 0 0 7.3164062 22.949219 L 11.220703 21.648438 C 11.813193 21.450941 12.415039 21.781249 12.566406 22.386719 C 12.702304 22.930829 12.404825 23.464363 11.871094 23.636719 L 4.6210938 25.976562 C 4.6210938 25.976562 4.6191406 25.976562 4.6191406 25.976562 C 3.6020994 26.252215 2.7475933 25.39787 3.0253906 24.380859 L 4.9648438 17.265625 L 4.9648438 17.263672 C 5.1971065 16.606268 6.2743476 16 7.5 16 z M 34.65625 16 L 37.960938 16 L 41.015625 16 C 41.750788 16 42.159987 16.279162 42.515625 16.683594 C 42.871263 17.088025 43.102312 17.639203 43.197266 17.955078 A 1.0001 1.0001 0 0 0 43.28125 18.169922 A 1.0001 1.0001 0 0 0 43.310547 18.261719 L 45.388672 23.984375 C 45.544004 24.565512 45.424982 24.862288 45.232422 25.03125 C 45.044494 25.196151 44.601684 25.35316 43.748047 25.117188 A 1.0001 1.0001 0 0 0 43.558594 25.0625 L 38.119141 23.240234 A 1.0001 1.0001 0 0 0 38.113281 23.238281 C 37.669704 23.093079 37.442274 22.641927 37.589844 22.199219 C 37.736191 21.760638 38.185297 21.535121 38.625 21.679688 A 1.0001 1.0001 0 0 0 38.630859 21.681641 L 41.359375 22.560547 A 1.0001 1.0001 0 1 0 41.970703 20.65625 L 39.25 19.779297 C 37.785703 19.297863 36.181012 20.104987 35.693359 21.566406 C 35.202929 23.037698 36.015852 24.655923 37.490234 25.138672 L 42.580078 26.84375 L 44.740234 34 L 37.876953 34 L 33.933594 34 L 30.796875 34 C 30.806775 34 30.396738 33.977813 30.066406 33.939453 L 34.402344 22.349609 A 1.0001 1.0001 0 0 0 33.414062 20.988281 A 1.0001 1.0001 0 0 0 32.529297 21.650391 L 29.679688 29.267578 A 1.0001 1.0001 0 0 0 29.570312 29.505859 C 29.557533 29.543789 29.478992 29.652166 29.279297 29.753906 C 29.079602 29.855647 28.788133 29.917969 28.638672 29.917969 C 28.1701 29.917969 27.818109 29.507256 28.0625 28.748047 A 1.0001 1.0001 0 0 0 28.072266 28.720703 C 28.401491 27.58523 29.509203 24.845936 30.513672 22.482422 C 31.51814 20.118908 32.429688 18.074219 32.429688 18.074219 A 1.0001 1.0001 0 0 0 32.474609 17.955078 C 32.569559 17.639203 32.800612 17.088025 33.15625 16.683594 C 33.511857 16.279158 33.921087 16 34.65625 16 z M 34.933594 36 L 36.933594 36 L 36.933594 44.082031 C 36.933594 44.494793 36.533594 44.916016 35.933594 44.916016 C 35.333594 44.916016 34.933594 44.494793 34.933594 44.082031 L 34.933594 36 z M 38.933594 36 L 40.933594 36 L 40.933594 44.082031 C 40.933594 44.494793 40.533594 44.916016 39.933594 44.916016 C 39.333594 44.916016 38.933594 44.494793 38.933594 44.082031 L 38.933594 36 z"/></svg>