<svg fill="#000000" xmlns="http://www.w3.org/2000/svg"  viewBox="0 0 50 50" width="50px" height="50px"><path d="M 7.015625 3 C 5.4322921 3 4.1194704 3.6297556 3.2695312 4.5859375 C 2.4195922 5.5421194 2.015625 6.7777779 2.015625 8 C 2.015625 9.2222221 2.4195921 10.457881 3.2695312 11.414062 C 4.1194704 12.370245 5.4322921 13 7.015625 13 C 8.5989579 13 9.9137327 12.370244 10.763672 11.414062 C 11.613611 10.457882 12.015625 9.2222221 12.015625 8 C 12.015625 6.7777779 11.613611 5.5421194 10.763672 4.5859375 C 9.9137327 3.6297556 8.5989579 3 7.015625 3 z M 34.015625 3 C 32.432292 3 31.11947 3.6297556 30.269531 4.5859375 C 29.419592 5.5421194 29.015625 6.7777779 29.015625 8 C 29.015625 9.2222221 29.419592 10.457881 30.269531 11.414062 C 31.11947 12.370245 32.432292 13 34.015625 13 C 35.598958 13 36.913733 12.370244 37.763672 11.414062 C 38.613611 10.457882 39.015625 9.2222221 39.015625 8 C 39.015625 6.7777779 38.613611 5.5421194 37.763672 4.5859375 C 36.913733 3.6297556 35.598958 3 34.015625 3 z M 39.015625 8 C 39.015625 9.2222221 39.419592 10.457881 40.269531 11.414062 C 41.11947 12.370245 42.432292 13 44.015625 13 C 45.598958 13 46.913733 12.370244 47.763672 11.414062 C 48.613611 10.457882 49.015625 9.2222221 49.015625 8 C 49.015625 6.7777779 48.613611 5.5421194 47.763672 4.5859375 C 46.913733 3.6297556 45.598958 3 44.015625 3 C 42.432292 3 41.11947 3.6297556 40.269531 4.5859375 C 39.419592 5.5421194 39.015625 6.7777779 39.015625 8 z M 7.015625 5 C 8.0989576 5 8.7861377 5.3702444 9.2695312 5.9140625 C 9.752925 6.4578806 10.015625 7.2222221 10.015625 8 C 10.015625 8.7777779 9.752925 9.5421189 9.2695312 10.085938 C 8.7861377 10.629755 8.0989576 11 7.015625 11 C 5.9322924 11 5.2470655 10.629756 4.7636719 10.085938 C 4.2802782 9.5421189 4.015625 8.7777779 4.015625 8 C 4.015625 7.2222221 4.2802782 6.4578806 4.7636719 5.9140625 C 5.2470655 5.3702444 5.9322924 5 7.015625 5 z M 34.015625 5 C 35.098958 5 35.786138 5.3702444 36.269531 5.9140625 C 36.752925 6.4578806 37.015625 7.2222221 37.015625 8 C 37.015625 8.7777779 36.752925 9.5421189 36.269531 10.085938 C 35.786138 10.629755 35.098958 11 34.015625 11 C 32.932292 11 32.247066 10.629756 31.763672 10.085938 C 31.280278 9.5421189 31.015625 8.7777779 31.015625 8 C 31.015625 7.2222221 31.280278 6.4578806 31.763672 5.9140625 C 32.247066 5.3702444 32.932292 5 34.015625 5 z M 44.015625 5 C 45.098958 5 45.786138 5.3702444 46.269531 5.9140625 C 46.752925 6.4578806 47.015625 7.2222221 47.015625 8 C 47.015625 8.7777779 46.752925 9.5421189 46.269531 10.085938 C 45.786138 10.629755 45.098958 11 44.015625 11 C 42.932292 11 42.247066 10.629756 41.763672 10.085938 C 41.280278 9.5421189 41.015625 8.7777779 41.015625 8 C 41.015625 7.2222221 41.280278 6.4578806 41.763672 5.9140625 C 42.247066 5.3702444 42.932292 5 44.015625 5 z M 6.5 14 C 4.026562 14 2 16.026562 2 18.5 L 2 28.820312 C 2 30.2808 2.8563337 31.447154 4 32.193359 L 4 43.5 C 4 45.421188 5.5788117 47 7.5 47 C 9.4211883 47 11 45.421188 11 43.5 L 11 30.294922 L 11 30 L 11 22.707031 L 13.167969 23.878906 A 1.0001 1.0001 0 0 0 13.644531 24 L 19 24 C 20.64497 24 22 22.64497 22 21 C 22 19.35503 20.64497 18 19 18 L 14.857422 18 L 9.7050781 15.111328 C 9.7009216 15.108906 9.6955807 15.105949 9.6914062 15.103516 A 1.0001 1.0001 0 0 0 9.6894531 15.103516 C 8.9081397 14.648034 7.8158353 14 6.5 14 z M 33.658203 14 C 30.544978 14 28 16.544978 28 19.658203 A 1.0001 1.0001 0 0 0 28.013672 19.826172 A 1.0001 1.0001 0 0 0 28 20 L 28 43 C 28 45.197334 29.802666 47 32 47 C 32.657056 47 33.28149 46.836648 33.832031 46.552734 C 34.331074 46.828067 34.89404 47 35.5 47 C 36.418909 47 37.24262 46.627326 37.861328 46.037109 C 38.4629 46.682397 39.318077 47.074319 40.267578 46.986328 C 40.956466 46.922638 41.510024 46.586527 41.960938 46.144531 C 42.556576 46.72792 43.374997 47.069587 44.273438 46.986328 C 45.938471 46.832391 47.005859 45.298738 47.005859 43.716797 L 47.005859 36.994141 C 47.26173 36.994256 47.630792 36.99392 47.841797 36.994141 C 48.200456 36.994515 48.489338 36.99497 48.685547 36.996094 C 48.783647 36.996632 48.86008 36.997347 48.90625 36.998047 C 48.92934 36.998383 48.946056 36.998007 48.947266 36.998047 C 48.947868 36.998067 48.946598 36.997586 48.925781 36.996094 C 48.923981 36.995969 48.916082 36.994341 48.914062 36.994141 C 48.904362 36.993591 48.895862 36.995734 48.857422 36.990234 C 48.850322 36.989234 48.834406 36.984369 48.816406 36.980469 C 48.775516 36.971769 48.722506 36.960898 48.722656 36.960938 C 48.722657 36.960938 48.720803 36.957031 48.720703 36.957031 A 1.0001 1.0001 0 0 0 48.816406 36.980469 A 1.0001 1.0001 0 0 0 48.914062 36.994141 A 1.0001 1.0001 0 0 0 50 36 C 50 35.999995 49.948963 35.930619 49.939453 35.917969 L 49.996094 35.916016 L 49 23.962891 L 49 19 A 1.0001 1.0001 0 0 0 48.898438 18.550781 C 48.631528 15.965611 46.286913 14 43.484375 14 C 41.72789 14 40.135845 14.743572 39.115234 15.947266 C 38.01357 14.805367 36.421314 14 34.5 14 L 33.658203 14 z M 6.5 16 C 7.0703721 16 7.9714295 16.415702 8.6992188 16.839844 A 1.0001 1.0001 0 0 0 8.7011719 16.841797 A 1.0001 1.0001 0 0 0 8.7128906 16.847656 L 14.107422 19.873047 A 1.0001 1.0001 0 0 0 14.595703 20 L 19 20 C 19.56503 20 20 20.43497 20 21 C 20 21.56503 19.56503 22 19 22 L 13.896484 22 L 7.375 18.472656 A 1.000188 1.000188 0 0 0 6.4238281 20.232422 L 9.0019531 21.626953 A 1.0001 1.0001 0 0 0 9 21.699219 L 9 30 L 9 30.294922 L 9 43.5 C 9 44.340812 8.3408117 45 7.5 45 C 6.6591883 45 6 44.340812 6 43.5 L 6 31.767578 A 1.0001 1.0001 0 0 0 5.3710938 30.839844 C 4.5680809 30.518227 4 29.746568 4 28.820312 L 4 18.5 C 4 17.107438 5.107438 16 6.5 16 z M 33.658203 16 L 34.5 16 C 35.964286 16 37.041478 16.600785 37.8125 17.474609 C 38.583522 18.348434 39 19.516667 39 20.5 L 39 27.019531 L 39 28.820312 C 39 29.065706 38.954648 29.297201 38.880859 29.515625 C 38.727433 29.803585 38.436208 30 38.078125 30 L 37.921875 30 C 37.399737 30 37 29.600263 37 29.078125 L 37 20 A 1.0001 1.0001 0 0 0 35.984375 18.986328 A 1.0001 1.0001 0 0 0 35 20 L 35 29.078125 C 35 30.356844 35.845781 31.444527 37 31.835938 L 37 35.832031 A 1.0001 1.0001 0 0 0 36.994141 36.125 L 36.994141 43.542969 C 36.984921 43.667915 36.98044 43.709561 36.994141 43.677734 L 36.994141 43.703125 A 1.0001 1.0001 0 0 0 36.96875 43.796875 C 36.831605 44.482598 36.237853 45 35.5 45 C 34.659188 45 34 44.340812 34 43.5 L 34 43 L 34 40 L 34 32 A 1.0001 1.0001 0 1 0 32 32 L 32 40 L 32 43 L 32 43.5 C 32 44.026833 32.127894 44.522812 32.339844 44.972656 C 32.229884 44.991174 32.11672 45 32 45 C 30.883334 45 30 44.116666 30 43 L 30 20 A 1.0001 1.0001 0 0 0 29.986328 19.833984 A 1.0001 1.0001 0 0 0 30 19.658203 C 30 17.625429 31.625429 16 33.658203 16 z M 43.484375 16 C 45.498434 16 47 17.401231 47 19 L 47 29.078125 C 47 29.600263 46.598754 30 46.078125 30 L 45.921875 30 C 45.399737 30 45 29.600263 45 29.078125 L 45 20 A 1.0001 1.0001 0 1 0 43 20 L 43 29.078125 C 43 30.679987 44.320013 32 45.921875 32 L 46.078125 32 C 46.646141 32 47.176009 31.828796 47.626953 31.542969 L 47.914062 34.994141 C 47.886072 34.994106 47.874613 34.994171 47.845703 34.994141 C 47.125521 34.993389 46.12523 34.993141 45 34.994141 C 43.071034 34.995855 40.875445 34.999155 39 35 L 39 32.193359 C 39.529565 31.847787 39.991966 31.407673 40.341797 30.894531 C 40.746061 30.392948 41 29.765602 41 29.078125 L 41 21 L 41 20.5 C 41 19.554027 40.772691 18.582253 40.333984 17.681641 C 40.891193 16.722769 42.066266 16 43.484375 16 z M 45 36.994141 C 45.002319 36.994139 45.003541 36.994143 45.005859 36.994141 L 45.005859 43.716797 C 45.005859 44.398856 44.544809 44.954031 44.089844 44.996094 C 43.504572 45.050331 43 44.57224 43 43.867188 L 43 43.716797 L 43 36.996094 C 43.695198 36.995347 44.357274 36.994712 45 36.994141 z M 41 36.998047 L 41 43.716797 C 41 44.398856 40.538949 44.954031 40.083984 44.996094 C 39.498712 45.050334 38.994141 44.573671 38.994141 43.867188 L 38.994141 43.623047 C 38.995074 43.581715 39 43.544466 39 43.5 L 39 40 L 39 37 C 39.625581 36.999715 40.310517 36.998698 41 36.998047 z"/></svg>