<svg fill="#000000" xmlns="http://www.w3.org/2000/svg"  viewBox="0 0 50 50" width="50px" height="50px"><path d="M 11.015625 3 C 9.4322921 3 8.1194705 3.6297556 7.2695312 4.5859375 C 6.4195921 5.5421194 6.015625 6.7777779 6.015625 8 C 6.015625 9.2222221 6.4195921 10.457881 7.2695312 11.414062 C 8.1194705 12.370245 9.4322921 13 11.015625 13 C 12.598958 13 13.913733 12.370244 14.763672 11.414062 C 15.613611 10.457882 16.015625 9.2222221 16.015625 8 C 16.015625 6.7777779 15.613611 5.5421194 14.763672 4.5859375 C 13.913733 3.6297556 12.598958 3 11.015625 3 z M 38.015625 3 C 36.432292 3 35.11947 3.6297556 34.269531 4.5859375 C 33.419592 5.5421194 33.015625 6.7777779 33.015625 8 C 33.015625 9.2222221 33.419592 10.457881 34.269531 11.414062 C 35.11947 12.370245 36.432292 13 38.015625 13 C 39.598958 13 40.913733 12.370244 41.763672 11.414062 C 42.613611 10.457882 43.015625 9.2222221 43.015625 8 C 43.015625 6.7777779 42.613611 5.5421194 41.763672 4.5859375 C 40.913733 3.6297556 39.598958 3 38.015625 3 z M 11.015625 5 C 12.098958 5 12.786138 5.3702444 13.269531 5.9140625 C 13.752925 6.4578806 14.015625 7.2222221 14.015625 8 C 14.015625 8.7777779 13.752925 9.5421189 13.269531 10.085938 C 12.786138 10.629755 12.098958 11 11.015625 11 C 9.9322924 11 9.2470655 10.629756 8.7636719 10.085938 C 8.2802782 9.5421189 8.015625 8.7777779 8.015625 8 C 8.015625 7.2222221 8.2802782 6.4578806 8.7636719 5.9140625 C 9.2470655 5.3702444 9.9322924 5 11.015625 5 z M 38.015625 5 C 39.098958 5 39.786138 5.3702444 40.269531 5.9140625 C 40.752925 6.4578806 41.015625 7.2222221 41.015625 8 C 41.015625 8.7777779 40.752925 9.5421189 40.269531 10.085938 C 39.786138 10.629755 39.098958 11 38.015625 11 C 36.932292 11 36.247066 10.629756 35.763672 10.085938 C 35.280278 9.5421189 35.015625 8.7777779 35.015625 8 C 35.015625 7.2222221 35.280278 6.4578806 35.763672 5.9140625 C 36.247066 5.3702444 36.932292 5 38.015625 5 z M 10.5 14 C 8.026562 14 6 16.026562 6 18.5 L 6 28.820312 C 6 30.2808 6.8563337 31.447154 8 32.193359 L 8 43.5 C 8 45.421188 9.5788117 47 11.5 47 C 13.421188 47 15 45.421188 15 43.5 L 15 30.294922 L 15 30 L 15 22.707031 L 17.167969 23.878906 A 1.0001 1.0001 0 0 0 17.644531 24 L 23 24 C 24.64497 24 26 22.64497 26 21 C 26 19.35503 24.64497 18 23 18 L 18.857422 18 L 13.705078 15.111328 C 13.700922 15.108906 13.695581 15.105949 13.691406 15.103516 A 1.0001 1.0001 0 0 0 13.689453 15.103516 C 12.90814 14.648034 11.815835 14 10.5 14 z M 37.658203 14 C 34.544978 14 32 16.544978 32 19.658203 L 32 23 L 32 32 L 32 43 C 32 45.197334 33.802666 47 36 47 C 36.657056 47 37.28149 46.836648 37.832031 46.552734 C 38.331074 46.828067 38.89404 47 39.5 47 C 41.150773 47 42.519846 45.82737 42.878906 44.273438 C 42.991044 43.961354 43 43.766799 43 43.5 L 43 40 L 43 32.193359 C 43.529565 31.847787 43.991966 31.407673 44.341797 30.894531 C 44.746061 30.392948 45 29.765602 45 29.078125 L 45 21 L 45 20.5 C 45 18.983333 44.416478 17.401566 43.3125 16.150391 C 42.208522 14.899215 40.535714 14 38.5 14 L 37.658203 14 z M 10.5 16 C 11.070372 16 11.97143 16.415702 12.699219 16.839844 A 1.0001 1.0001 0 0 0 12.701172 16.841797 A 1.0001 1.0001 0 0 0 12.712891 16.847656 L 18.107422 19.873047 A 1.0001 1.0001 0 0 0 18.595703 20 L 23 20 C 23.56503 20 24 20.43497 24 21 C 24 21.56503 23.56503 22 23 22 L 17.896484 22 L 11.375 18.472656 A 1.0001881 1.0001881 0 1 0 10.423828 20.232422 L 13.001953 21.626953 A 1.0001 1.0001 0 0 0 13 21.699219 L 13 30 L 13 30.294922 L 13 43.5 C 13 44.340812 12.340812 45 11.5 45 C 10.659188 45 10 44.340812 10 43.5 L 10 31.767578 A 1.0001 1.0001 0 0 0 9.3710938 30.839844 C 8.5680808 30.518227 8 29.746568 8 28.820312 L 8 18.5 C 8 17.107438 9.107438 16 10.5 16 z M 37.658203 16 L 38.5 16 C 39.964286 16 41.041478 16.600785 41.8125 17.474609 C 42.583522 18.348434 43 19.516667 43 20.5 L 43 27.019531 L 43 28.820312 C 43 29.065706 42.954648 29.297201 42.880859 29.515625 C 42.727433 29.803585 42.436208 30 42.078125 30 L 41.921875 30 C 41.399737 30 41 29.600263 41 29.078125 L 41 20 A 1.0001 1.0001 0 0 0 39.984375 18.986328 A 1.0001 1.0001 0 0 0 39 20 L 39 29.078125 C 39 30.356844 39.845781 31.444527 41 31.835938 L 41 40 L 41 43.5 C 41 43.72672 40.897805 43.885269 41.042969 43.572266 A 1.0001 1.0001 0 0 0 40.96875 43.796875 C 40.831605 44.482598 40.237853 45 39.5 45 C 38.659188 45 38 44.340812 38 43.5 L 38 43 L 38 40 L 38 32 A 1.0001 1.0001 0 1 0 36 32 L 36 40 L 36 43 L 36 43.5 C 36 44.026833 36.127894 44.522812 36.339844 44.972656 C 36.229884 44.991174 36.11672 45 36 45 C 34.883334 45 34 44.116666 34 43 L 34 31 L 34 23 L 34 19.658203 C 34 17.625429 35.625429 16 37.658203 16 z"/></svg>